<svg xmlns="http://www.w3.org/2000/svg" width="31.971" height="30.852" viewBox="0 0 31.971 30.852">
  <g id="noun_person_2292431" transform="translate(0 0)">
    <g id="Group_19" data-name="Group 19" transform="translate(0)">
      <path id="Path_4" data-name="Path 4" d="M17.227,18.844A8.422,8.422,0,1,0,8.8,10.422,8.431,8.431,0,0,0,17.227,18.844Zm0-14.5a6.081,6.081,0,1,1-6.081,6.081A6.089,6.089,0,0,1,17.227,4.341Z" transform="translate(-1.242 -2)" fill="#fff"/>
      <path id="Path_5" data-name="Path 5" d="M34.294,26.685a19.531,19.531,0,0,0-2.986-8.457,4.3,4.3,0,0,0-6.169-1.135,11.588,11.588,0,0,1-13.594.021,4.425,4.425,0,0,0-3.387-.767,4.266,4.266,0,0,0-2.815,1.888,18.638,18.638,0,0,0-1.015,1.77,19.649,19.649,0,0,0-1.964,6.681A3.341,3.341,0,0,0,3.2,29.28a3.431,3.431,0,0,0,2.549,1.141H30.9a3.436,3.436,0,0,0,2.558-1.144A3.339,3.339,0,0,0,34.294,26.685Zm-2.58,1.03a1.1,1.1,0,0,1-.812.364H5.749a1.078,1.078,0,0,1-.805-.362.981.981,0,0,1-.253-.773A17.275,17.275,0,0,1,6.42,21.056a16.451,16.451,0,0,1,.886-1.545,1.95,1.95,0,0,1,1.284-.863,1.993,1.993,0,0,1,.372-.034,2.069,2.069,0,0,1,1.215.4,13.932,13.932,0,0,0,16.337-.025,1.962,1.962,0,0,1,2.831.516,17.173,17.173,0,0,1,2.62,7.439A.978.978,0,0,1,31.715,27.715Z" transform="translate(-2.343 0.431)" fill="#fff"/>
    </g>
  </g>
</svg>
