<svg xmlns="http://www.w3.org/2000/svg" width="53.273" height="39.714" viewBox="0 0 53.273 39.714">
  <path id="Path_1" data-name="Path 1" d="M89.075,165.6v3.284L94.5,166.09v-3.714Zm0,23.594L94.5,186.4v-4.688l-5.429,2.794Zm7.286-2.9,7.155,2.3v-4.826l-7.155-2.3Zm7.155,4.245-7.155-2.3v9.4h7.155ZM94.5,188.482l-5.429,2.794v6.363H94.5Zm-5.429-6.058,5.429-2.794v-4.687l-5.429,2.794Zm7.286-2.9,7.155,2.3v-4.826l-7.155-2.3Zm-7.286-3.866L94.5,172.86v-4.688l-5.429,2.795Zm7.286-2.9,7.155,2.3v-4.826l-7.155-2.3Zm0-6.77,7.155,2.3v-3.462l-7.155-2.649Zm14.625,15.53v16.128h4.726V183.061Zm-1.856,16.128V181.663l-3.476,1.724v14.251ZM83.773,181.677v15.961h3.446V183.387Zm-1.856,15.961V181.5l-4.754,1.561v14.577Zm-10.26-3.7v3.7h3.649v-3.751l-2.093-.6ZM69.8,192.717l3.3-1.391,2.2.631V181.721l7.653-2.514,4.26,2.113V164.546l8.029-4.766,10.124,3.749V181.46l4.542-2.254,7.653,2.514v10.237l2.2-.631,3.3,1.391v6.776H69.8Zm51.416,4.921v-3.7l-1.555-.655-2.094.6v3.751Z" transform="translate(-69.8 -159.78)" fill="#fff"/>
</svg>
