<svg xmlns="http://www.w3.org/2000/svg" width="34.494" height="36.768" viewBox="0 0 34.494 36.768">
  <g id="noun_Project_2565911" transform="translate(0.25 0.25)">
    <g id="Group_31" data-name="Group 31" transform="translate(0)">
      <g id="Group_22" data-name="Group 22">
        <path id="Path_10" data-name="Path 10" d="M31.735,5.266,30.88,3.01H21.062l-.854,2.256H12.934V23.972H10.967V26.22a5.613,5.613,0,0,0-.914.378L8.461,25.007,6.056,27.413,7.645,29a5.572,5.572,0,0,0-.383.922H5.015v3.4H7.263a5.519,5.519,0,0,0,.381.917L6.056,35.831l2.406,2.406,1.59-1.59a5.62,5.62,0,0,0,.915.382v2.249H39.009V5.266H31.735ZM30.1,4.143l1.288,3.4H20.557l1.288-3.4H30.1Zm-16.424,31.9-.44.1v2H12.1v-2a5.249,5.249,0,0,1-1.84-.685l-.383-.242L8.461,36.634l-.8-.8,1.419-1.419a5.087,5.087,0,0,1-.829-1.78l-.1-.44h-2V31.058h2a5.249,5.249,0,0,1,.684-1.844l.244-.383L7.659,27.413l.8-.8,1.416,1.417a5.242,5.242,0,0,1,1.784-.821l.44-.1v-2h1.134v2a5.361,5.361,0,0,1,1.84.68l.383.242,1.416-1.417.8.8L16.259,28.83a5.191,5.191,0,0,1,.827,1.786l.1.441h2v1.134h-2a5.248,5.248,0,0,1-.683,1.836l-.247.384,1.419,1.419-.8.8-1.416-1.417A5.318,5.318,0,0,1,13.674,36.044Zm.694,2.1V37.028a5.619,5.619,0,0,0,.915-.382l1.5,1.5Zm23.508,0H16.966l2.313-2.313-1.589-1.589a5.518,5.518,0,0,0,.381-.917H20.32v-3.4H18.072A5.572,5.572,0,0,0,17.69,29l1.59-1.59-2.406-2.406L15.283,26.6a5.613,5.613,0,0,0-.914-.378V23.972h-.3V6.4h5.71l-.862,2.278H33.028L32.166,6.4h5.71V38.144Z" transform="translate(-5.015 -3.01)" fill="#fff" stroke="#fff" stroke-width="0.5"/>
      </g>
      <g id="Group_23" data-name="Group 23" transform="translate(4.818 25.781)">
        <path id="Path_11" data-name="Path 11" d="M17.4,48.7a2.688,2.688,0,0,0-1.054-.209A2.834,2.834,0,1,0,17.4,48.7Zm-1.054.924a1.7,1.7,0,0,1,0,3.4A1.7,1.7,0,0,1,16.349,49.624Z" transform="translate(-13.515 -48.49)" fill="#fff" stroke="#fff" stroke-width="0.5"/>
      </g>
      <g id="Group_24" data-name="Group 24" transform="translate(17.573 2.255)">
        <rect id="Rectangle_15" data-name="Rectangle 15" width="1.134" height="1.134" fill="#fff" stroke="#fff" stroke-width="0.5"/>
      </g>
      <g id="Group_25" data-name="Group 25" transform="translate(20.407 2.255)">
        <rect id="Rectangle_16" data-name="Rectangle 16" width="1.134" height="1.134" fill="#fff" stroke="#fff" stroke-width="0.5"/>
      </g>
      <g id="Group_26" data-name="Group 26" transform="translate(23.241 2.255)">
        <rect id="Rectangle_17" data-name="Rectangle 17" width="1.134" height="1.134" fill="#fff" stroke="#fff" stroke-width="0.5"/>
      </g>
      <g id="Group_27" data-name="Group 27" transform="translate(13.588 8.49)">
        <rect id="Rectangle_18" data-name="Rectangle 18" width="14.738" height="1.134" fill="#fff" stroke="#fff" stroke-width="0.5"/>
      </g>
      <g id="Group_28" data-name="Group 28" transform="translate(13.588 11.891)">
        <rect id="Rectangle_19" data-name="Rectangle 19" width="14.738" height="1.134" fill="#fff" stroke="#fff" stroke-width="0.5"/>
      </g>
      <g id="Group_29" data-name="Group 29" transform="translate(13.588 15.292)">
        <rect id="Rectangle_20" data-name="Rectangle 20" width="14.738" height="1.134" fill="#fff" stroke="#fff" stroke-width="0.5"/>
      </g>
      <g id="Group_30" data-name="Group 30" transform="translate(13.588 18.694)">
        <rect id="Rectangle_21" data-name="Rectangle 21" width="14.738" height="1.134" fill="#fff" stroke="#fff" stroke-width="0.5"/>
      </g>
    </g>
  </g>
</svg>
