<svg xmlns="http://www.w3.org/2000/svg" width="77.347" height="97.854" viewBox="0 0 77.347 97.854">
  <g id="noun_Logistics_3339585" transform="translate(-22.3 -4.867)">
    <path id="Path_496" data-name="Path 496" d="M85.226,29.659,75.5,21.433a4.159,4.159,0,0,0-2.685-.985H36.179a4.168,4.168,0,0,0-2.685.984l-9.724,8.228a4.15,4.15,0,0,0-1.1,1.465l-.011.027a4.143,4.143,0,0,0-.356,1.683v44.9a3.676,3.676,0,0,0,3.673,3.672H83.027A3.675,3.675,0,0,0,86.7,77.737v-44.9a4.15,4.15,0,0,0-1.472-3.174ZM73.927,23.3l8.381,7.092H63.35c-.008-.029-.015-.065-.023-.093l-1.853-7.4H72.818a1.715,1.715,0,0,1,1.109.405Zm-14.971-.407,2.015,8.055a7.241,7.241,0,0,1,.214,1.891v18.33a.238.238,0,0,1-.117.211.26.26,0,0,1-.174.047l-4.73-2.637a2.67,2.67,0,0,0-3.286,0L48.145,51.4a.239.239,0,0,1-.219-.023.237.237,0,0,1-.116-.21V32.833a7.22,7.22,0,0,1,.229-1.946l2-8ZM35.068,23.3a1.722,1.722,0,0,1,1.11-.407H47.523l-1.836,7.349c-.014.046-.024.1-.037.15H26.688ZM84.257,77.737a1.232,1.232,0,0,1-1.23,1.231H25.97a1.233,1.233,0,0,1-1.229-1.231V32.829H45.37V51.17A2.685,2.685,0,0,0,49.22,53.6c.022-.01.044-.022.066-.034l4.87-2.7a1.22,1.22,0,0,0,.2-.14.248.248,0,0,1,.325,0,1.21,1.21,0,0,0,.2.142l4.888,2.722a2.69,2.69,0,0,0,3.854-2.422V32.829h20.63V77.737Z" transform="translate(0 -2.903)" fill="#517ee9"/>
    <path id="Path_497" data-name="Path 497" d="M81.009,105.7c-2.212-1.486-5.47-.693-8.39.063a3.67,3.67,0,0,0-2.059-3.555,53.888,53.888,0,0,0-9.344-2.69,23.117,23.117,0,0,0-15.045,2.051c-2.41,1.139-9.645,5.967-11.588,9a2.907,2.907,0,0,0-.478,1.971c.244,2.234,5.487,7.03,7.149,7.567a3.229,3.229,0,0,0,.994.163,2.929,2.929,0,0,0,1.639-.513c.3-.194.659-.481,1.074-.814a13.1,13.1,0,0,1,3.372-2.17c2.251-.793,5.766-.535,8.587-.325,1.321.1,2.463.177,3.385.163,4.373-.106,18.848-3.765,21.335-6.01a2.8,2.8,0,0,0,.9-2.3,3.461,3.461,0,0,0-1.529-2.6Zm-1,3.087c-1.723,1.554-15.388,5.275-19.759,5.38-.814.022-1.943-.063-3.148-.152-3.05-.223-6.842-.5-9.575.461a14.9,14.9,0,0,0-4.087,2.568c-.347.278-.675.54-.87.666a.514.514,0,0,1-.559.081c-1.089-.355-5.228-4.381-5.475-5.517a.479.479,0,0,1,.109-.385c1.5-2.347,8.1-6.938,10.578-8.112a21.636,21.636,0,0,1,9.423-2.283,20.509,20.509,0,0,1,4.091.417,53.233,53.233,0,0,1,8.695,2.46,1.185,1.185,0,0,1,.751,1.268,1.046,1.046,0,0,1-.928.873,12.554,12.554,0,0,1-3.356-.212c-2.239-.325-4.777-.688-6.958.529a1.221,1.221,0,0,0,1.19,2.132c1.459-.814,3.472-.526,5.42-.244a14.482,14.482,0,0,0,4,.215h.091A27.468,27.468,0,0,0,73,108.2c2.36-.613,5.294-1.375,6.652-.461a1.036,1.036,0,0,1,.456.745A.347.347,0,0,1,80,108.79Z" transform="translate(-2.196 -17.553)" fill="#517ee9"/>
    <path id="Path_498" data-name="Path 498" d="M102.41,12.047a2.929,2.929,0,0,0-1.522-2.567l-1.66-.909a1.312,1.312,0,0,1-.523-.524L97.8,6.385a2.929,2.929,0,0,0-5.134,0l-.91,1.662a1.318,1.318,0,0,1-.523.524l-1.662.909a2.929,2.929,0,0,0,0,5.135l1.662.909a1.316,1.316,0,0,1,.523.523l.91,1.663a2.929,2.929,0,0,0,5.134,0l.91-1.662a1.311,1.311,0,0,1,.523-.523l1.662-.909a2.929,2.929,0,0,0,1.52-2.569Zm-2.693.426-1.663.909a3.753,3.753,0,0,0-1.493,1.494l-.9,1.662a.488.488,0,0,1-.851,0l-.91-1.662A3.759,3.759,0,0,0,92.4,13.383l-1.662-.909a.488.488,0,0,1,0-.852l1.662-.909A3.759,3.759,0,0,0,93.9,9.219L94.8,7.557a.488.488,0,0,1,.851,0l.91,1.662a3.753,3.753,0,0,0,1.493,1.494l1.663.909a.488.488,0,0,1,0,.852Z" transform="translate(-12.252 0)" fill="#517ee9"/>
    <path id="Path_499" data-name="Path 499" d="M113.325,26.829l-1.126-.616a.1.1,0,0,1-.041-.042l-.616-1.126a2.766,2.766,0,0,0-4.86,0l-.616,1.125a.1.1,0,0,1-.041.041l-1.126.616a2.766,2.766,0,0,0,0,4.86l1.126.616a.107.107,0,0,1,.041.042l.616,1.126a2.766,2.766,0,0,0,4.86,0l.616-1.126a.1.1,0,0,1,.041-.042l1.126-.616a2.766,2.766,0,0,0,0-4.86Zm-1.171,2.718-1.126.616a2.548,2.548,0,0,0-1.012,1.011L109.4,32.3a.325.325,0,0,1-.577,0l-.616-1.126a2.547,2.547,0,0,0-1.011-1.011l-1.126-.616a.325.325,0,0,1,0-.577l1.126-.616a2.547,2.547,0,0,0,1.014-1.011l.616-1.126a.325.325,0,0,1,.577,0l.615,1.126a2.548,2.548,0,0,0,1.012,1.011l1.126.616a.325.325,0,0,1,0,.577Z" transform="translate(-15.123 -3.491)" fill="#517ee9"/>
  </g>
</svg>
