<svg xmlns="http://www.w3.org/2000/svg" width="83.059" height="97.768" viewBox="0 0 83.059 97.768">
  <g id="noun_e-learning_1258633" transform="translate(-11.5 -11.614)">
    <g id="Group_2982" data-name="Group 2982" transform="translate(11.5 11.614)">
      <path id="Path_481" data-name="Path 481" d="M41.38,84.244A1.808,1.808,0,0,0,39.8,82.277H17.244c-1.422,0-2.58-1.444-2.58-3.218V18.768c0-1.775,1.157-3.218,2.58-3.218H92.977a1.808,1.808,0,0,0,1.582-1.968,1.808,1.808,0,0,0-1.582-1.968H17.244c-3.167,0-5.744,3.21-5.744,7.154v60.29c0,3.945,2.576,7.154,5.744,7.154H39.8A1.807,1.807,0,0,0,41.38,84.244Z" transform="translate(-11.5 -11.614)" fill="#517ee9"/>
      <ellipse id="Ellipse_3" data-name="Ellipse 3" cx="1.283" cy="1.279" rx="1.283" ry="1.279" transform="translate(7.116 6.985)" fill="#517ee9"/>
      <ellipse id="Ellipse_4" data-name="Ellipse 4" cx="1.283" cy="1.279" rx="1.283" ry="1.279" transform="translate(11.963 6.985)" fill="#517ee9"/>
      <ellipse id="Ellipse_5" data-name="Ellipse 5" cx="1.283" cy="1.279" rx="1.283" ry="1.279" transform="translate(16.613 6.985)" fill="#517ee9"/>
      <path id="Path_482" data-name="Path 482" d="M45.27,104.486H40.78a1.6,1.6,0,1,0,0,3.2h4.49a1.6,1.6,0,1,0,0-3.2Z" transform="translate(-17.31 -16.241)" fill="#517ee9"/>
      <path id="Path_483" data-name="Path 483" d="M95.081,28.269H23.6a1.6,1.6,0,0,0,0,3.2H93.5V69.79a2.6,2.6,0,0,1-2.575,2.617H58.593a1.6,1.6,0,0,0,0,3.2H90.925A5.784,5.784,0,0,0,96.66,69.79V29.869A1.589,1.589,0,0,0,95.081,28.269Z" transform="translate(-13.603 -9.855)" fill="#517ee9"/>
      <path id="Path_484" data-name="Path 484" d="M79.365,82.294H55.433a2.6,2.6,0,0,1-2.566-2.617V71.064a10.044,10.044,0,0,0,8.247-8.39h9.9c.01,0,.02,0,.03,0,.118,0,.235.018.353.018h4.637a4.628,4.628,0,0,0,4.736-4.544,4.541,4.541,0,0,0-2.124-4.094,8.85,8.85,0,0,0,.214-1.908A6.374,6.374,0,0,0,73.8,45.758a7.347,7.347,0,0,0-2.234-4.735,7.783,7.783,0,0,0-8.315-1.58,8.525,8.525,0,0,0-14.182,0,7.784,7.784,0,0,0-8.315,1.579,7.347,7.347,0,0,0-2.234,4.737,6.2,6.2,0,0,0-5.06,6.039,9.289,9.289,0,0,0,.238,2.261,4.543,4.543,0,0,0-2.113,4.087,4.628,4.628,0,0,0,4.736,4.544h5.151a10.044,10.044,0,0,0,8.245,8.375v8.612A5.774,5.774,0,0,0,55.433,85.5H79.365a2.618,2.618,0,0,1,0,5.235H50.673a7.834,7.834,0,0,0-7.628-6.322h-8a7.924,7.924,0,0,0,0,15.845h8a7.832,7.832,0,0,0,7.626-6.321H79.365a5.82,5.82,0,0,0,0-11.637ZM44.676,62.688h.658a7.958,7.958,0,0,0,8.033-7.861,1.574,1.574,0,1,0-3.148,0,4.782,4.782,0,0,1-4.885,4.66H36.323a1.5,1.5,0,0,1-1.591-1.48A1.276,1.276,0,0,1,36,56.594h.837a1.6,1.6,0,0,0,0-3.2h-.057a5.794,5.794,0,0,1-.171-1.6,2.991,2.991,0,0,1,2.365-2.857,7.43,7.43,0,0,0,1.78,2.708,1.556,1.556,0,0,0,2.226-.054,1.62,1.62,0,0,0-.053-2.263,4.13,4.13,0,0,1,0-5.993,4.631,4.631,0,0,1,6.4,0,1.556,1.556,0,0,0,2.226-.054,1.619,1.619,0,0,0,.132-2.044,5.384,5.384,0,0,1,8.935-.024l-.738.715a1.619,1.619,0,0,0-.054,2.263,1.556,1.556,0,0,0,2.226.054L63,43.336a4.631,4.631,0,0,1,6.4,0,4.13,4.13,0,0,1,0,5.993,1.62,1.62,0,0,0-.053,2.263,1.556,1.556,0,0,0,2.226.054,7.422,7.422,0,0,0,1.779-2.706,3.172,3.172,0,0,1,2.364,3.145,5.426,5.426,0,0,1-.148,1.308h-.046a1.6,1.6,0,0,0,0,3.2h.837a1.277,1.277,0,0,1,1.27,1.413,1.5,1.5,0,0,1-1.591,1.48H71.4a4.782,4.782,0,0,1-4.885-4.66,1.574,1.574,0,1,0-3.148,0,7.7,7.7,0,0,0,1.568,4.646H57.117a1.6,1.6,0,0,0,0,3.2h.795a6.776,6.776,0,0,1-13.236.015ZM43.045,97.051h-8a4.722,4.722,0,0,1,0-9.443h8a4.722,4.722,0,0,1,0,9.443Z" transform="translate(-14.649 -2.485)" fill="#517ee9"/>
    </g>
  </g>
</svg>
