<svg xmlns="http://www.w3.org/2000/svg" width="97.838" height="97.838" viewBox="0 0 97.838 97.838">
  <g id="noun_Social_Media_3683567" data-name="noun_Social Media_3683567" transform="translate(-1.421 -16)">
    <path id="Path_488" data-name="Path 488" d="M91.009,160.153A22.87,22.87,0,0,0,68.18,182.982c0,.55.02,1.1.061,1.631H61.658V174.544a4.888,4.888,0,0,0-1.427-3.465L53.5,164.352V153.631A1.635,1.635,0,0,0,51.874,152H25.784a1.635,1.635,0,0,0-1.631,1.631v10.742L17.427,171.1A4.888,4.888,0,0,0,16,174.564v24.725a4.906,4.906,0,0,0,4.892,4.892H40.46v8.153H37.2a1.635,1.635,0,0,0-1.631,1.631v3.261a4.906,4.906,0,0,0,4.892,4.892H89.379a4.906,4.906,0,0,0,4.892-4.892v-3.261a1.635,1.635,0,0,0-1.631-1.631H89.379V205.75c.53.041,1.08.061,1.631.061a22.829,22.829,0,0,0,0-45.658ZM61.658,199.288V187.874H68.71a22.9,22.9,0,0,0,17.407,17.407v7.052h-42.4V204.18H56.766A4.906,4.906,0,0,0,61.658,199.288ZM53.5,168.979l3.71,3.71-3.71,1.733Zm-26.09-13.718H50.243v20.648l-11.414,5.259-11.414-5.259Zm-3.261,13.718v5.442l-3.71-1.712Zm-3.261,31.94a1.635,1.635,0,0,1-1.631-1.631V175.746l18.875,8.724a1.6,1.6,0,0,0,1.366,0l18.875-8.724v23.542a1.635,1.635,0,0,1-1.631,1.631Zm70.117,14.676v1.631a1.635,1.635,0,0,1-1.631,1.631H40.46a1.635,1.635,0,0,1-1.631-1.631v-1.631Zm0-13.045a19.568,19.568,0,1,1,19.568-19.568A19.573,19.573,0,0,1,91.009,202.55Z" transform="translate(-14.579 -108.279)" fill="#517ee9"/>
    <path id="Path_489" data-name="Path 489" d="M362.691,249.115l-10.864-8.153A4.892,4.892,0,0,0,344,244.876v16.306a4.889,4.889,0,0,0,4.872,4.892,4.991,4.991,0,0,0,2.956-.978l10.864-8.153a4.885,4.885,0,0,0,.978-6.849A4.453,4.453,0,0,0,362.691,249.115Zm-1.957,5.218-10.864,8.153a1.63,1.63,0,0,1-2.283-.326,1.707,1.707,0,0,1-.326-.978V244.876a1.661,1.661,0,0,1,.9-1.468,1.566,1.566,0,0,1,.734-.183,1.707,1.707,0,0,1,.978.326l10.864,8.153a1.63,1.63,0,0,1,.326,2.283A1.319,1.319,0,0,1,360.734,254.333Z" transform="translate(-275.723 -178.326)" fill="#517ee9"/>
    <path id="Path_490" data-name="Path 490" d="M300.027,16H260.892A4.906,4.906,0,0,0,256,20.892V60.027a1.632,1.632,0,0,0,2.854,1.08L269.29,49.183a1.637,1.637,0,0,1,1.223-.55h29.515a4.906,4.906,0,0,0,4.892-4.892V20.892A4.906,4.906,0,0,0,300.027,16Zm1.631,27.721a1.635,1.635,0,0,1-1.631,1.631H270.533a4.936,4.936,0,0,0-3.689,1.671l-7.582,8.663V20.892a1.635,1.635,0,0,1,1.631-1.631h39.135a1.635,1.635,0,0,1,1.631,1.631Z" transform="translate(-205.66)" fill="#517ee9"/>
    <rect id="Rectangle_2354" data-name="Rectangle 2354" width="32" height="5" transform="translate(58.02 23.453)" fill="#517ee9"/>
    <rect id="Rectangle_2355" data-name="Rectangle 2355" width="32" height="3" transform="translate(58.02 30.453)" fill="#517ee9"/>
    <rect id="Rectangle_2356" data-name="Rectangle 2356" width="23" height="3" transform="translate(58.02 37.453)" fill="#517ee9"/>
    <path id="Path_491" data-name="Path 491" d="M17.631,32.306H37.361a8.148,8.148,0,0,0,9.6,6.359,8.253,8.253,0,0,0,2.874-1.182l7.4,7.4,2.3-2.3L52.159,35.16a8.154,8.154,0,0,0,1.182-2.854h6.686a1.635,1.635,0,0,0,1.631-1.631V17.631A1.635,1.635,0,0,0,60.027,16h-42.4A1.635,1.635,0,0,0,16,17.631V30.676A1.635,1.635,0,0,0,17.631,32.306Zm27.721,3.261a4.892,4.892,0,1,1,4.892-4.892A4.88,4.88,0,0,1,45.351,35.568ZM19.261,19.261H58.4v9.784H53.342a8.155,8.155,0,0,0-15.98,0h-18.1Z" transform="translate(-14.579)" fill="#517ee9"/>
    <rect id="Rectangle_2357" data-name="Rectangle 2357" width="16" height="4" transform="translate(17.02 49.453)" fill="#517ee9"/>
    <rect id="Rectangle_2358" data-name="Rectangle 2358" width="16" height="4" transform="translate(17.02 56.453)" fill="#517ee9"/>
    <rect id="Rectangle_2359" data-name="Rectangle 2359" width="16" height="5" transform="translate(17.02 62.453)" fill="#517ee9"/>
  </g>
</svg>
