<svg xmlns="http://www.w3.org/2000/svg" width="79.05" height="98.569" viewBox="0 0 79.05 98.569">
  <g id="noun_Navy_1741690" transform="translate(-21.992 -6.645)">
    <g id="Group_2993" data-name="Group 2993" transform="translate(21.992 6.645)">
      <path id="Path_494" data-name="Path 494" d="M134.89,69.306a14.393,14.393,0,0,0-3.311-7.092,15.629,15.629,0,0,0-7.133-4.748l-1.156-.359-.753,2.6q-.468,1.613-.935,3.225l-2.53,8.742,4.048-1.518a23.705,23.705,0,0,1-6.378,10.994c-1.071-7.45-6.683-12.621-13.094-17.267l-1.309-24.657h15.1V31.262H101.913l-.318-6.024a10.3,10.3,0,1,0-16.417-8.289,10.189,10.189,0,0,0,.338,2.617,10.04,10.04,0,0,0,.795,2.065A19.236,19.236,0,0,0,79.51,29a15.619,15.619,0,0,0-.908,2.259H73.649v7.967h4.483a26.123,26.123,0,0,0,1.691,5.79A28.217,28.217,0,0,0,87.893,55.4l-.147,2.777L86.515,81.342a3.94,3.94,0,0,1-2.909,3.522,7.743,7.743,0,0,1-3.342-.243c-8.1-2.676-11.234-10.659-12.29-14.46l4.048,1.518-2.532-8.746q-.676-2.33-1.352-4.665L67.8,57.1l-1.156.362a15.648,15.648,0,0,0-7.133,4.75A14.376,14.376,0,0,0,56.2,69.305l-.18,1.639,4.465-.97a31.068,31.068,0,0,0,1.959,9.91c3.431,9.07,9.475,14.336,17.96,15.646,9.483,1.467,13.646,7.357,14.081,8.009l.063.1,1.012,1.577.994-1.6a14.774,14.774,0,0,1,2.521-2.808,10.523,10.523,0,0,0,3.933.744,12.147,12.147,0,0,0,1.558-.1,12.879,12.879,0,0,0,9.658-6.746c6.648-2.106,11.493-7.083,14.42-14.823a31.165,31.165,0,0,0,1.959-9.908l4.467.97Zm-23.244,5.361a15.907,15.907,0,0,1,2.876,8.2l-.016.011c-.188.12-.379.237-.575.352a15.684,15.684,0,0,1-1.775.891c-.172.073-.346.144-.52.211-.247.1-.512.193-.811.294a7.716,7.716,0,0,1-3.34.239,3.93,3.93,0,0,1-2.91-3.51l-.609-11.464-.157-2.936A34.363,34.363,0,0,1,111.646,74.667Zm3.423-41.033v3.224H80.27a14.736,14.736,0,0,1,.2-3.224ZM101.18,62.143q-1.192-.826-2.392-1.643c-2.892-1.976-5.825-3.982-8.464-6.155l.8-15.115h8.835Zm-9.629-30.88L91.8,26.57a10.273,10.273,0,0,0,7.487-.049l.253,4.742ZM87.675,18.354a8.026,8.026,0,0,1-.125-1.405A7.932,7.932,0,1,1,98.906,24.1h-.14v.063a7.913,7.913,0,0,1-9.043-1.773,26.013,26.013,0,0,1,3.737-1.6,4.436,4.436,0,1,0-1.843-1.866,28.338,28.338,0,0,0-3.261,1.489A7.874,7.874,0,0,1,87.675,18.354Zm5.814-1.469a2.058,2.058,0,1,1,2.058,2.058A2.06,2.06,0,0,1,93.489,16.885ZM81.629,30.07a16.888,16.888,0,0,1,6.01-6.454,10.35,10.35,0,0,0,1.852,1.709l-.314,5.937H81.112Q81.341,30.655,81.629,30.07Zm-5.607,6.788V33.634h2.036a17.087,17.087,0,0,0-.168,3.224Zm5.994,7.255a24.077,24.077,0,0,1-1.474-4.884h8.211l-.7,13.124A24.208,24.208,0,0,1,82.016,44.113ZM98.388,98.285l0,0a20.5,20.5,0,0,0-2.836,2.739,23.708,23.708,0,0,0-14.78-7.841c-7.58-1.17-13-5.929-16.106-14.142a28.021,28.021,0,0,1-1.8-10.475l.089-1.557-3.967.862a12.7,12.7,0,0,1,2.332-4.121,13.268,13.268,0,0,1,4.9-3.6q.5,1.723,1,3.441L68.43,67.8l-3.564-1.336.289,1.984a27.894,27.894,0,0,0,2.551,7.661c2.688,5.378,6.772,9.1,11.812,10.764a9.952,9.952,0,0,0,4.7.283A6.314,6.314,0,0,0,88.883,81.5l1.144-21.562.142-2.674c2.333,1.815,4.821,3.515,7.281,5.2,1.322.9,2.626,1.795,3.89,2.69l.151,2.833.717,13.517a6.309,6.309,0,0,0,4.663,5.655,9.936,9.936,0,0,0,4.7-.279c.109-.036.213-.073.316-.109.221-.077.425-.154.614-.229a17.9,17.9,0,0,0,1.935-.881l.013-.007a25.375,25.375,0,0,1-1.833,6.907c-.023.056-.047.111-.071.167-.293.077-.589.149-.89.216-.431.093-.879.176-1.336.247q-.355.056-.71.12c-.492.089-.98.19-1.459.3a25.313,25.313,0,0,0-6.594,2.542,23.278,23.278,0,0,0-2.954,1.961Zm5.876.814a9,9,0,0,1-2.867-.073q.643-.425,1.323-.806a22.854,22.854,0,0,1,5.975-2.3c.65-.152,1.32-.283,1.99-.388l.141-.023A10.4,10.4,0,0,1,104.264,99.1ZM128.14,67.011l.087,1.555a27.605,27.605,0,0,1-1.8,10.477c-2.349,6.211-6.025,10.449-10.954,12.651a24.554,24.554,0,0,0,1.449-7.612c7.465-5.579,8.948-15.2,9.012-15.635l.289-1.984L122.663,67.8l1.215-4.2q.468-1.615.935-3.228l.063-.218a13.238,13.238,0,0,1,4.9,3.6,12.776,12.776,0,0,1,2.332,4.123Z" transform="translate(-56.021 -6.645)" fill="#517ee9"/>
      <path id="Path_495" data-name="Path 495" d="M223.421,346.266a8.862,8.862,0,0,1-.292,1.967,7.56,7.56,0,0,1-2.171,3.618l1.61,1.742a9.9,9.9,0,0,0,2.848-4.733,11.39,11.39,0,0,0,.374-2.488l.438-9.854-2.369-.105Z" transform="translate(-188.359 -271.235)" fill="#517ee9"/>
      <rect id="Rectangle_2360" data-name="Rectangle 2360" width="2.372" height="5.406" transform="translate(35.499 57.312)" fill="#517ee9"/>
    </g>
  </g>
</svg>
