<svg xmlns="http://www.w3.org/2000/svg" width="96.478" height="96.485" viewBox="0 0 96.478 96.485">
  <g id="noun_build_2063222" transform="translate(0 0.024)">
    <path id="Path_492" data-name="Path 492" d="M16.58,103.365H55.016a3.015,3.015,0,0,0,3.015-3.015V94.321a3.015,3.015,0,0,0-3.015-3.015H53.509V85.277H55.77a3.015,3.015,0,0,0,3.015-3.015V76.233a3.015,3.015,0,0,0-3.015-3.015H53.509V67.19a3.015,3.015,0,0,0-3.015-3.015H48.233V58.146a3.015,3.015,0,0,0-3.015-3.015H39.19a3.015,3.015,0,0,0-1.507.422,3.015,3.015,0,0,0-1.507-.422H34.668V49.1h1.507a3.015,3.015,0,0,0,3.015-3.015V40.058a3.015,3.015,0,0,0-3.015-3.015H34.668V31.015A3.015,3.015,0,0,0,31.653,28H25.624a3.015,3.015,0,0,0-1.507.422A3.015,3.015,0,0,0,22.609,28H12.058a3.015,3.015,0,0,0-1.507.422A3.015,3.015,0,0,0,9.044,28H3.015A3.015,3.015,0,0,0,0,31.015v6.029a3.015,3.015,0,0,0,.422,1.507A3.015,3.015,0,0,0,0,40.058v6.029a3.015,3.015,0,0,0,.422,1.507A3.015,3.015,0,0,0,0,49.1v6.029a3.015,3.015,0,0,0,.422,1.507A3.015,3.015,0,0,0,0,58.146v6.029a3.015,3.015,0,0,0,.422,1.507A3.015,3.015,0,0,0,0,67.19v6.029a3.015,3.015,0,0,0,.422,1.507A3.015,3.015,0,0,0,0,76.233v6.029A3.015,3.015,0,0,0,.422,83.77,3.015,3.015,0,0,0,0,85.277v6.029a3.015,3.015,0,0,0,.422,1.507A3.015,3.015,0,0,0,0,94.321v6.029a3.015,3.015,0,0,0,3.015,3.015H13.566a3.015,3.015,0,0,0,1.507-.422A3.015,3.015,0,0,0,16.58,103.365ZM12.058,91.306V85.277h6.783v6.029Zm6.783-33.16v6.029h-9.8V58.146Zm-6.783-3.015V49.1H22.609v6.029Zm0,12.058H22.609v6.029H12.058Zm20.348,9.044v6.029H25.624V76.233Zm-6.783-3.015V67.19h6.029v6.029Zm2.261,12.058v6.029H21.856V85.277Zm-11.3-9.044h6.029v6.029H16.58Zm0,24.117V94.321h6.029v6.029Zm15.827,0H25.624V94.321h6.783Zm9.044,0H35.421V94.321h6.029Zm0-9.044H30.9V85.277H41.451Zm-6.029-9.044V76.233H39.19v6.029ZM55.016,94.321v6.029H44.465V94.321ZM44.465,91.306V85.277h6.029v6.029Zm11.3-15.073v6.029H42.2V76.233ZM50.494,67.19v6.029H44.465V67.19Zm-11.3-9.044h6.029v6.029H39.19Zm2.261,9.044v6.029H34.668V67.19Zm-5.276-9.044v6.029H21.856V58.146ZM25.624,55.131V49.1h6.029v6.029ZM36.175,40.058v6.029H30.146V40.058ZM25.624,31.015h6.029v6.029H25.624Zm0,9.044h1.507v6.029H16.58V40.058ZM12.058,31.015H22.609v6.029H12.058Zm-9.044,0H9.044v6.029H3.015Zm0,9.044H13.566v6.029H3.015Zm0,9.044H9.044v6.029H3.015Zm0,9.044H6.029v6.029H3.015Zm0,9.044H9.044v6.029H3.015Zm0,9.044H13.566v6.029H3.015Zm0,9.044H9.044v6.029H3.015ZM13.566,100.35H3.015V94.321H13.566Z" transform="translate(0 -6.904)" fill="#517ee9"/>
    <path id="Path_493" data-name="Path 493" d="M108.023,10.741,89.25.19a1.507,1.507,0,0,0-1.01-.2L55.6,6.023a1.507,1.507,0,0,0-.814.437l-4.371,4.522A1.507,1.507,0,0,0,51.5,13.56h9.1V30.434l-5.63,5.4a1.507,1.507,0,0,0,1.048,2.593H68.08a1.507,1.507,0,0,0,1.055-2.585l-5.517-5.4V13.56H83.967L77.432,85.91h-2.57a1.507,1.507,0,0,0-1.507,1.507v7.536a1.507,1.507,0,0,0,1.507,1.507h30.146a1.507,1.507,0,0,0,1.507-1.507V87.417a1.507,1.507,0,0,0-1.507-1.507h-2.675l-8.2-72.35h13.136a1.507,1.507,0,0,0,.754-2.819ZM64.387,35.415h-4.6l2.336-2.261ZM83.906,47.647l3.6,3.829-4.341,4.341Zm8.139-25.8.339,3.015H85.994l.271-3.015Zm-5.5-3.015.475-5.276H91.1l.6,5.276Zm-.377,9.044h6.557L93.3,33H85.263l.467-5.185A1.507,1.507,0,0,0,86.167,27.879ZM83.906,75,89.8,68.222l6.549,6.858L90.162,79.1Zm11.3,10.905H85.187l5-3.248ZM89.732,63.715,84.773,58.53l4.853-4.853,4.582,4.869Zm-3.52-18.05,3.437-3.693,3.7,3.7L89.672,49.35Zm3.361-8.034-1.62-1.62h3.128Zm-2.057,2.208-3.18,3.414.543-6.029ZM82.753,60.791l4.982,5.215L81.645,73.03ZM81.3,76.866l6.12,3.972-6.881,4.469Zm22.2,12.058v4.522H76.37V88.924Zm-4.318-4.017-6.233-4.04,5.373-3.489ZM97.736,72.1l-5.931-6.2,4.62-5.336ZM95.9,55.952l-4.16-4.409,3.286-3.316ZM94.4,42.387l-2.668-2.668,2.11-2.261ZM55.042,10.545l1.583-1.65L88.277,3.076l13.234,7.469Z" transform="translate(-12.31)" fill="#517ee9"/>
  </g>
</svg>
