<svg xmlns="http://www.w3.org/2000/svg" width="51" height="97.633" viewBox="0 0 51 97.633">
  <path id="Path_479" data-name="Path 479" d="M73.025,23a6.349,6.349,0,0,0-6.375,6.375A6.233,6.233,0,0,0,71.136,35.4V53.461L55.789,64.2V21a6.346,6.346,0,1,0-8.264-6.021A6.233,6.233,0,0,0,52.011,21V62.67h0v7.792L36.664,59.718V41.892A6.346,6.346,0,1,0,28.4,35.871a6.233,6.233,0,0,0,4.486,6.021V61.607l3.66,2.6L51.893,74.948V93.837a6.341,6.341,0,0,0-4.486,6.021,6.527,6.527,0,0,0,6.493,6.375,6.349,6.349,0,0,0,6.375-6.375,6.233,6.233,0,0,0-4.486-6.021V68.691L74.914,55.35V35.4A6.336,6.336,0,0,0,73.025,23ZM32.178,35.753a2.6,2.6,0,1,1,2.6,2.6A2.546,2.546,0,0,1,32.178,35.753ZM53.9,12.378a2.6,2.6,0,1,1,0,5.194,2.546,2.546,0,0,1-2.6-2.6A2.62,2.62,0,0,1,53.9,12.378Zm2.6,87.48a2.6,2.6,0,1,1-2.6-2.6A2.62,2.62,0,0,1,56.5,99.858Zm16.528-68a2.477,2.477,0,0,1-2.6-2.6,2.6,2.6,0,1,1,2.6,2.6Z" transform="translate(-28.4 -8.6)" fill="#517ee9"/>
</svg>
