<svg xmlns="http://www.w3.org/2000/svg" width="120.305" height="120.166" viewBox="0 0 120.305 120.166">
  <g id="Group_3140" data-name="Group 3140" transform="translate(2544.771 399.902)">
    <path id="Path_742" data-name="Path 742" d="M-2485.565-279.737a55.448,55.448,0,0,1-7.482-.568,51.423,51.423,0,0,1-7.543-1.573c-1.368-.411-2.753-.776-4.1-1.29-1.223-.467-2.415-1.023-3.653-1.433a25.546,25.546,0,0,1-3.208-1.471,21.916,21.916,0,0,1-3.628-2.027c-.587-.442-1.3-.718-1.928-1.127-1.339-.871-2.673-1.75-3.926-2.738-1.358-1.071-2.718-2.143-4-3.309-1.329-1.21-2.552-2.526-3.813-3.806a39.718,39.718,0,0,1-2.944-3.382c-.928-1.184-1.866-2.362-2.681-3.639-.85-1.332-1.729-2.642-2.507-4.021a44.97,44.97,0,0,1-2.5-4.948c-.57-1.387-1.165-2.767-1.683-4.181a55.863,55.863,0,0,1-2.039-7.038,40.589,40.589,0,0,1-.8-4.4c-.131-1.182-.313-2.364-.486-3.545a10.927,10.927,0,0,1-.076-1.343,44.8,44.8,0,0,1-.164-5.237c.172-1.844.138-3.7.453-5.541.155-.9.165-1.838.325-2.751.239-1.366.427-2.74.8-4.082.316-1.133.534-2.293.873-3.419a48.71,48.71,0,0,1,1.65-4.918c.387-.919.72-1.864,1.16-2.756.715-1.449,1.382-2.922,2.208-4.317.711-1.2,1.35-2.444,2.1-3.62a60.041,60.041,0,0,1,3.76-5.178c.963-1.2,2.018-2.323,3.045-3.468.471-.525,1.06-.969,1.541-1.481.584-.622,1.214-1.191,1.822-1.782.821-.8,1.758-1.472,2.621-2.223.927-.806,1.892-1.556,2.884-2.269,1.515-1.089,3.1-2.078,4.7-3.035a57.715,57.715,0,0,1,5.469-2.858,58.493,58.493,0,0,1,8.314-3.062c1.65-.472,3.325-.875,5.009-1.211,1.271-.253,2.577-.35,3.854-.567a41.945,41.945,0,0,1,5.358-.494,54.829,54.829,0,0,1,9.238.33c1.542.2,3.095.341,4.614.682,1.92.431,3.849.822,5.732,1.419,1.223.388,2.446.771,3.652,1.21,1.6.583,3.139,1.313,4.694,2,1.375.61,2.678,1.356,4.006,2.051.933.488,1.8,1.109,2.7,1.668a49.974,49.974,0,0,1,4.143,2.909,46.412,46.412,0,0,1,4.9,4.272q.513.526,1.055,1.024a42.207,42.207,0,0,1,4.257,4.726c.934,1.158,1.864,2.327,2.7,3.558,1.011,1.493,1.94,3.043,2.864,4.592.546.916,1.045,1.863,1.508,2.823.392.811.738,1.648,1.1,2.472.322.73.658,1.46.952,2.2.729,1.841,1.365,3.719,1.926,5.618.4,1.368.751,2.757,1.047,4.153.2.96.311,1.947.486,2.912.251,1.385.29,2.791.546,4.17a10.885,10.885,0,0,1,.045,1.165,62.088,62.088,0,0,1,.014,8.121c-.083,1.555-.3,3.1-.475,4.641-.138,1.21-.363,2.414-.61,3.607a33.257,33.257,0,0,1-.811,3.235c-.221.7-.379,1.435-.6,2.146-.458,1.5-.944,2.987-1.547,4.431-.452,1.081-.817,2.2-1.377,3.237-.6,1.1-1.092,2.251-1.727,3.34-.585,1-1.139,2.031-1.771,3a47.174,47.174,0,0,1-3.181,4.6c-.956,1.148-1.891,2.314-2.865,3.448a59.965,59.965,0,0,1-4.415,4.44,57.543,57.543,0,0,1-6.974,5.555,52.571,52.571,0,0,1-7.361,4.25,59.843,59.843,0,0,1-6.511,2.739,59.069,59.069,0,0,1-10.564,2.606c-2.122.3-4.245.516-6.377.683C-2483.071-279.7-2484.39-279.768-2485.565-279.737Zm60.3-63.005a72.971,72.971,0,0,0-.8-7.574c-.124-.9-.448-1.761-.578-2.668a14.051,14.051,0,0,0-.456-1.867c-.291-1.006-.575-2.016-.935-3-.4-1.106-.69-2.255-1.112-3.352a43.65,43.65,0,0,0-2.1-4.776c-.822-1.551-1.648-3.1-2.565-4.6a41.652,41.652,0,0,0-3.152-4.687c-.5-.615-.965-1.258-1.443-1.89-.623-.825-1.362-1.549-2.021-2.342-.966-1.164-2.045-2.22-3.111-3.287-.42-.421-.91-.772-1.34-1.184a48.218,48.218,0,0,0-4.48-3.7c-1.34-1.007-2.736-1.937-4.171-2.807a24.891,24.891,0,0,0-2.138-1.292c-1.429-.68-2.8-1.48-4.248-2.116-1.9-.833-3.807-1.662-5.774-2.316-1.57-.522-3.183-.917-4.787-1.333a48.13,48.13,0,0,0-6.393-1.164,57.615,57.615,0,0,0-10.074-.393,59.9,59.9,0,0,0-7.172.738c-.894.159-1.78.366-2.678.51-.881.142-1.736.439-2.609.643-.8.187-1.607.379-2.379.635q-2.544.845-5.048,1.816c-1.614.629-3.162,1.4-4.7,2.166a47.729,47.729,0,0,0-4.765,2.747,50.471,50.471,0,0,0-5.375,3.864,50.936,50.936,0,0,0-3.906,3.418c-.75.791-1.593,1.5-2.313,2.313-1,1.129-2.011,2.244-2.968,3.411-1.106,1.35-2.135,2.756-3.145,4.175-.593.833-1.1,1.734-1.625,2.613-.673,1.122-1.311,2.271-1.874,3.451-.812,1.7-1.679,3.377-2.324,5.154-.333.918-.738,1.811-1.042,2.737-.288.876-.519,1.771-.808,2.649-.181.548-.33,1.108-.462,1.671-.2.852-.362,1.714-.558,2.567a34.525,34.525,0,0,0-.68,3.912c-.11.978-.218,1.959-.329,2.936-.172,1.507-.159,3.018-.2,4.524-.053,1.808.025,3.622.106,5.431a19.863,19.863,0,0,0,.246,2.267c.19,1.173.314,2.355.512,3.528.1.6.276,1.176.367,1.776a15.685,15.685,0,0,0,.526,2.3c.3.979.444,2,.788,2.975.373,1.064.741,2.13,1.115,3.2.479,1.362,1.036,2.689,1.646,3.992.66,1.409,1.373,2.793,2.092,4.173.464.891.959,1.774,1.5,2.611.5.775,1.006,1.561,1.564,2.307.685.917,1.345,1.855,2.069,2.741a49.6,49.6,0,0,0,3.4,3.924c1.051,1.042,2.035,2.158,3.144,3.133,1.51,1.327,3.05,2.619,4.662,3.83a62.355,62.355,0,0,0,6.049,3.969c1.12.654,2.26,1.275,3.436,1.825,1.023.479,2.044.969,3.086,1.4s2.11.82,3.172,1.208a16.927,16.927,0,0,0,1.935.664c1.22.285,2.394.73,3.619,1.008.811.183,1.622.413,2.432.565a19.73,19.73,0,0,0,2.538.451c1.146.064,2.258.384,3.41.432,1.359.057,2.714.224,4.073.266a59.68,59.68,0,0,0,8.424-.381c.693-.077,1.4-.1,2.076-.25.715-.153,1.438-.251,2.153-.395.86-.173,1.722-.331,2.577-.526.64-.146,1.266-.352,1.9-.507,1.021-.249,2.039-.51,3.033-.857,2.012-.7,4-1.455,5.948-2.334a48.425,48.425,0,0,0,5.505-2.771c1.159-.714,2.324-1.428,3.446-2.209,1.171-.816,2.335-1.643,3.45-2.529a52.711,52.711,0,0,0,4.823-4.287c.628-.64,1.323-1.217,1.922-1.882.982-1.088,1.927-2.211,2.858-3.344.842-1.023,1.692-2.045,2.451-3.129.881-1.258,1.725-2.545,2.484-3.885.552-.975,1.114-1.946,1.663-2.921.508-.9.919-1.872,1.35-2.822a58.964,58.964,0,0,0,2.325-6.1c.281-.862.573-1.723.793-2.6.264-1.054.571-2.1.767-3.17.145-.793.4-1.569.5-2.366.173-1.452.4-2.9.525-4.357.141-1.625.171-3.255.289-4.881A22.349,22.349,0,0,0-2425.263-342.742Z" fill="#fff"/>
    <path id="Path_743" data-name="Path 743" d="M-2308.608-212.546c0,.917.034,2-.011,3.071-.038.894-.147,1.786-.265,2.674-.163,1.228-.3,2.463-.564,3.672-.282,1.31-.591,2.617-.993,3.9s-.779,2.607-1.272,3.876a37.872,37.872,0,0,1-2.455,5.153c-.629,1.1-1.227,2.21-1.912,3.272-.605.939-1.237,1.857-1.921,2.746-.665.864-1.337,1.72-2.042,2.551-.871,1.027-1.807,1.992-2.768,2.933-.608.595-1.22,1.187-1.854,1.755a47.082,47.082,0,0,1-6.543,4.778,40.269,40.269,0,0,1-5.127,2.755c-1.23.541-2.466,1.065-3.738,1.5a39.344,39.344,0,0,1-4.535,1.383c-1.737.375-3.471.762-5.235,1.018a45.34,45.34,0,0,1-7.076.421,41.131,41.131,0,0,1-8.817-.985c-1.441-.334-2.892-.627-4.3-1.072a47.1,47.1,0,0,1-7.259-2.921,44.371,44.371,0,0,1-5.324-3.113,45.6,45.6,0,0,1-3.734-2.767,46.971,46.971,0,0,1-3.933-3.63c-.768-.834-1.563-1.643-2.284-2.52a52.24,52.24,0,0,1-4.135-5.742,40.1,40.1,0,0,1-3-5.8c-.593-1.443-1.224-2.876-1.675-4.374-.312-1.035-.631-2.069-.875-3.121-.31-1.331-.566-2.676-.809-4.021-.09-.5-.133-1.009-.191-1.513a58.312,58.312,0,0,1-.271-7.885c.023-1.1.125-2.184.241-3.265a30.442,30.442,0,0,1,.8-4.723c.237-.876.353-1.789.635-2.649.431-1.314.754-2.663,1.3-3.941.448-1.056.845-2.133,1.346-3.169a50.264,50.264,0,0,1,2.78-5.159c.706-1.107,1.485-2.165,2.247-3.235a46.32,46.32,0,0,1,3.137-3.846,39.84,39.84,0,0,1,3.863-3.79,48.225,48.225,0,0,1,4.063-3.162,47.21,47.21,0,0,1,5.558-3.334,46.13,46.13,0,0,1,4.5-1.977c1.077-.4,2.148-.826,3.253-1.136a50.21,50.21,0,0,1,6.057-1.433c1.867-.281,3.73-.516,5.612-.641,1.258-.083,2.51.023,3.765.034a32.909,32.909,0,0,1,4.019.258,43,43,0,0,1,6.113,1.147c1.1.312,2.245.529,3.324.92a40.5,40.5,0,0,1,4.736,1.877c1.111.568,2.276,1.033,3.337,1.7,1.6,1,3.23,1.961,4.764,3.083a55.815,55.815,0,0,1,5.211,4.361,32.6,32.6,0,0,1,2.526,2.65,48.228,48.228,0,0,1,3.87,5.061c.725,1.125,1.379,2.294,2.049,3.453.539.931,1.054,1.87,1.5,2.843a25.159,25.159,0,0,1,1.224,2.951c.26.829.633,1.623.883,2.46a22.67,22.67,0,0,1,.966,3.713,6.22,6.22,0,0,0,.237.844,35.117,35.117,0,0,1,.693,4.087A30.933,30.933,0,0,1-2308.608-212.546Zm-.7.325a43.732,43.732,0,0,0-.217-5.5c-.081-.7-.163-1.4-.282-2.084-.225-1.289-.446-2.584-.8-3.85-.264-.947-.43-1.917-.757-2.851-.291-.831-.633-1.65-.871-2.493a24.742,24.742,0,0,0-1.385-3.334c-.517-1.153-1.16-2.251-1.759-3.366-.317-.591-.625-1.192-1-1.748-.644-.959-1.271-1.931-1.987-2.839-.661-.838-1.288-1.7-1.973-2.522-.815-.974-1.676-1.907-2.572-2.81a41.261,41.261,0,0,0-3.577-3.253,38.572,38.572,0,0,0-4.523-3.2c-.9-.526-1.718-1.184-2.673-1.63-1.312-.614-2.567-1.362-3.908-1.9-1.536-.616-3.086-1.206-4.674-1.7a47.034,47.034,0,0,0-6.235-1.427,35.784,35.784,0,0,0-5.711-.527,57,57,0,0,0-6.636.2,43.619,43.619,0,0,0-5.956,1.059c-1.012.26-2.013.553-3.015.85a38.2,38.2,0,0,0-4.982,1.848,40.182,40.182,0,0,0-5.583,2.943,45.76,45.76,0,0,0-4.094,2.792c-1.126.934-2.289,1.828-3.362,2.819a31.159,31.159,0,0,0-2.66,2.723c-.579.683-1.208,1.323-1.757,2.033a53.882,53.882,0,0,0-4.16,6.011c-.521.9-1.029,1.814-1.49,2.749-.7,1.426-1.329,2.887-1.9,4.372a22.418,22.418,0,0,0-.913,2.539c-.277,1.115-.659,2.2-.9,3.329-.176.838-.4,1.679-.523,2.52-.2,1.3-.386,2.6-.5,3.909a44.476,44.476,0,0,0-.005,8.065,6.2,6.2,0,0,0,.045,1.025,22.578,22.578,0,0,1,.4,2.655c.19,1.257.477,2.491.76,3.724.247,1.078.6,2.132.943,3.187a22.3,22.3,0,0,0,1.056,3.008c.571,1.169,1.039,2.383,1.641,3.54a49,49,0,0,0,2.962,5.036,50.238,50.238,0,0,0,4.1,5.216,24.38,24.38,0,0,0,2.088,2.2c.64.555,1.29,1.1,1.906,1.681.664.625,1.4,1.162,2.111,1.722.647.511,1.354.97,2.029,1.457a35.823,35.823,0,0,0,3.625,2.259,41.04,41.04,0,0,0,4.688,2.274c.925.368,1.833.787,2.78,1.091,1.361.437,2.744.809,4.116,1.21,1.018.3,2.054.47,3.082.69.962.206,1.951.287,2.93.407a20.018,20.018,0,0,0,2.086.205,55.05,55.05,0,0,0,8.873-.312c1.943-.282,3.863-.637,5.77-1.1a48.837,48.837,0,0,0,4.782-1.479,28.03,28.03,0,0,0,3.523-1.432,56.1,56.1,0,0,0,6.369-3.637c1.212-.84,2.437-1.665,3.593-2.578.874-.69,1.654-1.5,2.466-2.269a45.707,45.707,0,0,0,6.164-7.123,38.643,38.643,0,0,0,3.045-5c.368-.748.814-1.459,1.164-2.215.5-1.081.961-2.18,1.37-3.3.523-1.436.984-2.886,1.374-4.362.271-1.024.425-2.075.673-3.1a28.488,28.488,0,0,0,.529-3.217A27.268,27.268,0,0,0-2309.307-212.222Z" transform="translate(-128.519 -127.277)" fill="#fff"/>
    <path id="Path_744" data-name="Path 744" d="M-2383.89,580.786a11.583,11.583,0,0,0-1.5.54c-.707.361-1.473.566-2.183.916-.561.276-1.166.461-1.738.717-.306.137-.535.154-.718-.171a1.018,1.018,0,0,0-.242-.262c-.327-.273-.27-.518-.027-.838,1.005-1.322,1.83-2.767,2.762-4.139.143-.21.3-.412.428-.629.062-.1.193-.246.057-.359-.1-.087-.225.027-.316.1-.517.405-1.037.808-1.544,1.225-.957.786-1.906,1.581-2.859,2.372-.034.028-.076.08-.106.075-.47-.081-.593-.539-.874-.825-.162-.165,0-.311.13-.407.9-.65,1.706-1.4,2.577-2.083a30.941,30.941,0,0,0,2.854-2.362c.17-.169.279-.247.456-.012q.618.821,1.268,1.617a.311.311,0,0,1,.006.458c-.953,1.383-1.885,2.78-2.822,4.173-.072.107-.2.215-.083.354.1.113.213.023.327-.006a8.676,8.676,0,0,0,1.375-.568c1.1-.483,2.264-.835,3.348-1.369.183-.09.337-.105.467.087.357.53.795,1,1.166,1.524.211.3.085.418-.1.526a28.781,28.781,0,0,0-2.254,1.852c-.59.423-1.141.891-1.708,1.341-.467.371-.916.765-1.352,1.171-.223.207-.326.228-.486-.075a3.263,3.263,0,0,0-.582-.676c-.156-.161-.128-.267.04-.4.978-.761,1.9-1.595,2.906-2.321.541-.389,1.02-.865,1.526-1.3.057-.049.118-.109.085-.191C-2383.663,580.723-2383.765,580.783-2383.89,580.786Z" transform="translate(-138.277 -886.728)" fill="#fff"/>
    <path id="Path_745" data-name="Path 745" d="M-1964.712,806.33c-.244,1.167-.215,2.46-.366,3.739a20.672,20.672,0,0,0-.21,2.806c.008.417-.163.539-.573.5-.887-.09-.881-.072-.83-.937.094-1.6.159-3.193.372-4.78a3.2,3.2,0,0,0,.018-.359c0-.105.005-.228-.118-.263s-.2.064-.24.159c-.171.39-.349.778-.493,1.178-.383,1.066-.775,2.124-1.261,3.151a8.3,8.3,0,0,0-.5,1.284.325.325,0,0,1-.387.278c-.03,0-.06,0-.09-.006-.955-.095-.915.167-1.118-.907-.275-1.45-.652-2.88-.968-4.323a7.521,7.521,0,0,0-.173-.922c-.046-.13-.031-.346-.228-.329-.147.013-.162.2-.178.331a9.377,9.377,0,0,0-.131,1.242c.014,1.438-.323,2.851-.286,4.29.007.268-.143.386-.4.368a7.767,7.767,0,0,1-.8-.094c-.227-.04-.249-.213-.232-.414.188-2.294.377-4.588.551-6.882.022-.3.135-.4.417-.372.623.067,1.246.14,1.871.187a.37.37,0,0,1,.4.337c.174.893.358,1.785.534,2.678.155.784.3,1.57.458,2.354.025.126.085.232.226.243s.191-.093.239-.216q.756-1.929,1.528-3.853a3.346,3.346,0,0,0,.421-1.023c.014-.2.218-.261.422-.231a9.136,9.136,0,0,0,1.828.176C-1964.609,805.7-1964.721,806-1964.712,806.33Z" transform="translate(-519.505 -1096.548)" fill="#fff"/>
    <path id="Path_746" data-name="Path 746" d="M-2479,384.129c-1.4.088-2.609.16-3.819.242a3.942,3.942,0,0,0-1.334.068c-.093.038-.191-.021-.226-.155a6.724,6.724,0,0,0-.271-.885c-.2-.494.034-.781.428-1,1.233-.679,2.426-1.424,3.6-2.2.147-.1.34-.092.456-.254.065-.091.235-.135.2-.268-.043-.16-.218-.142-.344-.138-.553.021-1.106.061-1.659.085-1,.042-2,.064-3,.12-.742.042-.741.06-.987-.614-.335-.917-.345-.934.524-1.469,1.755-1.081,3.522-2.144,5.289-3.206.2-.117.323-.44.585-.332.242.1.122.432.238.645a2.817,2.817,0,0,1,.185.687c.036.151-.067.208-.179.268q-2.038,1.095-4.073,2.2a.215.215,0,0,0-.068.058c-.134.176-.5.239-.405.5.086.225.38.047.574.041,1.432-.05,2.864-.115,4.3-.18.688-.031.815.057,1,.725.242.872.231.856-.422,1.315-.87.612-1.833,1.061-2.745,1.6-.4.234-.782.486-1.164.742-.091.061-.218.152-.169.287.061.169.229.125.351.1,1.6-.28,3.23-.124,4.822-.427.4-.075.534.07.6.443.157.9.171.9-.722.929C-2478.023,384.078-2478.606,384.11-2479,384.129Z" transform="translate(-53.331 -704.367)" fill="#fff"/>
    <path id="Path_747" data-name="Path 747" d="M-1626.267,699.508c.146.416.324.9.484,1.382q.59,1.78,1.165,3.565a.4.4,0,0,1-.205.527c-.325.181-.632.394-.943.6a.309.309,0,0,1-.471-.05c-.8-.976-1.828-1.709-2.692-2.617-.78-.82-1.6-1.6-2.415-2.388-.23-.222-.359-.358.06-.517a3.027,3.027,0,0,0,.7-.468.292.292,0,0,1,.463.06c.644.806,1.438,1.468,2.13,2.227.441.484.9.948,1.353,1.423.095.1.2.224.337.13.12-.081.028-.211,0-.327-.27-1.145-.791-2.211-1.029-3.371-.1-.48-.388-.927-.5-1.425-.044-.2-.068-.383.132-.518.331-.225.656-.459.992-.676a.362.362,0,0,1,.507.085c1.047,1.04,2.11,2.062,3.162,3.1a2.368,2.368,0,0,1,.385.488c.094.162.224.22.368.153.2-.09.094-.269.036-.39a10.63,10.63,0,0,1-.7-1.886c-.26-.986-.731-1.887-1.053-2.847-.042-.126-.075-.222.022-.325a3.5,3.5,0,0,1,.976-.708c.179-.091.231.058.259.2.37,1.936,1.206,3.726,1.755,5.606.13.448.288.888.446,1.327a.335.335,0,0,1-.159.453,8.376,8.376,0,0,0-.741.5c-.347.276-.564.207-.883-.115-1.155-1.164-2.369-2.268-3.5-3.458-.09-.095-.187-.219-.342-.165C-1626.336,699.146-1626.258,699.306-1626.267,699.508Z" transform="translate(-831.048 -996.12)" fill="#fff"/>
    <path id="Path_748" data-name="Path 748" d="M-2475.781,9.743c-1.1-.153-2.214-.1-3.307-.229-.658-.08-1.312.017-1.959-.1-.11-.02-.27-.05-.316.089-.053.159.112.19.215.225.614.208,1.158.6,1.766.778.641.183,1.264.4,1.892.619a5.686,5.686,0,0,0,1.2.484c.169.019.223.167.19.346-.053.3-.273.527-.306.837-.015.143-.159.076-.257.041-1.291-.462-2.569-.955-3.839-1.469-.545-.221-1.113-.387-1.678-.553-.871-.256-.955-.37-.7-1.2.129-.412.3-.809.455-1.214a.363.363,0,0,1,.44-.271c1.4.155,2.793.292,4.2.331a3.843,3.843,0,0,1,.442.062c.1.015.217.037.279-.075s-.011-.2-.079-.281a1.729,1.729,0,0,0-.308-.32,25.491,25.491,0,0,1-2.581-2.045,8.054,8.054,0,0,0-.833-.6.356.356,0,0,1-.146-.466,16.394,16.394,0,0,1,.656-1.667c.1-.2.187-.309.442-.195,1.307.587,2.65,1.083,4,1.563.6.214,1.2.441,1.8.659.438.159.5.287.332.715-.343.868-.322.82-1.213.44-.945-.4-1.938-.691-2.9-1.05a7.465,7.465,0,0,1-1.293-.505c-.127-.076-.314-.156-.4-.008-.1.167.1.252.208.341q1.758,1.465,3.6,2.825c.131.1.239.226.367.328.56.445.54.437.341,1.108A.558.558,0,0,1-2475.781,9.743Z" transform="translate(-56.209 -366.499)" fill="#fff"/>
    <path id="Path_749" data-name="Path 749" d="M-1465,591.217c.1.281-.243.6-.032.775.23.188.443-.2.705-.25a1.149,1.149,0,0,1,.8.209c.7.393,1.376.842,2.109,1.18.175.081.183.159.079.3q-.334.45-.658.906c-.138.194-.269.18-.445.034a11.212,11.212,0,0,0-1.746-1.094.821.821,0,0,0-1.159.165,5.461,5.461,0,0,0-.864,1.014.38.38,0,0,0,.109.576q.94.714,1.884,1.424c.2.147.286.285.08.5a3.629,3.629,0,0,0-.434.569c-.236.38-.459.331-.773.067-.885-.745-1.793-1.463-2.7-2.188s-1.782-1.424-2.675-2.133c-.148-.118-.1-.228-.009-.344a24.332,24.332,0,0,1,2.7-3.153,1.838,1.838,0,0,1,2.859.768A1.184,1.184,0,0,1-1465,591.217Zm-1.078.907a1.2,1.2,0,0,0-.671-1.086.912.912,0,0,0-1.151.171,12.856,12.856,0,0,0-.956,1.177c-.152.2-.072.388.128.539.309.233.622.463.909.722.543.492.536.5.968-.083.169-.228.331-.462.506-.686A1.847,1.847,0,0,0-1466.075,592.124Z" transform="translate(-977.338 -900.268)" fill="#fff"/>
    <path id="Path_750" data-name="Path 750" d="M-1773.808,791.32a1.872,1.872,0,0,1,1.826,1.212,1.715,1.715,0,0,1-.446,2.051c-.281.29-.338.386.129.511.662.176.85.813,1.088,1.364.23.532.408,1.086.643,1.615.092.207.026.279-.141.322-.361.092-.724.174-1.089.251-.136.029-.215-.039-.266-.176q-.341-.921-.7-1.836c-.263-.665-.487-.775-1.19-.671a4.992,4.992,0,0,0-1.13.254c-.252.1-.321.228-.266.473.17.771.32,1.547.508,2.313.071.289.014.427-.28.469a2.37,2.37,0,0,0-.345.092c-.813.245-.862.189-1.023-.651-.2-1.03-.44-2.052-.687-3.071a16.338,16.338,0,0,1-.582-2.479c-.022-.265-.2-.5-.195-.778,0-.181.033-.331.234-.38q1.821-.438,3.644-.871A1.483,1.483,0,0,1-1773.808,791.32Zm.473,2.427a1.085,1.085,0,0,0-1.057-1.186,6.169,6.169,0,0,0-1.691.371.245.245,0,0,0-.171.318c.11.555.213,1.111.339,1.662a.352.352,0,0,0,.484.27c.446-.114.9-.217,1.335-.352A1.047,1.047,0,0,0-1773.335,793.747Z" transform="translate(-697.823 -1084.041)" fill="#fff"/>
    <path id="Path_751" data-name="Path 751" d="M-1382.471,469.067a6.052,6.052,0,0,1-.579,1.971c-.258.632-.541,1.253-.793,1.887-.087.218-.173.218-.367.125-1.57-.755-3.21-1.352-4.771-2.132-.461-.23-.97-.38-1.448-.589-.361-.157-.5-.336-.284-.756.355-.683.622-1.411.943-2.112.987-2.158,2.682-2.642,4.8-1.751A3.756,3.756,0,0,1-1382.471,469.067Zm-1.243.291a1.608,1.608,0,0,0-.383-1.094,4.271,4.271,0,0,0-2.075-1.33,2.126,2.126,0,0,0-2.543.811c-.176.344-.348.692-.5,1.047-.095.22.013.357.229.453.9.4,1.787.821,2.69,1.212a15.222,15.222,0,0,0,1.586.728c.231.07.422.061.523-.184A4.193,4.193,0,0,0-1383.714,469.357Z" transform="translate(-1050.13 -787.345)" fill="#fff"/>
    <path id="Path_752" data-name="Path 752" d="M-1519.233,652.377a3.875,3.875,0,0,1,2.817,1.342,5.04,5.04,0,0,1,1.256,1.971,3.145,3.145,0,0,1-.645,3.15,3.616,3.616,0,0,1-3.266,1.517,4.068,4.068,0,0,1-2.625-1.581,5.109,5.109,0,0,1-1.161-2.22,2.6,2.6,0,0,1,.22-1.824,4.939,4.939,0,0,1,2.6-2.28A2.431,2.431,0,0,1-1519.233,652.377Zm.968,6.734c.419.072.719-.194,1.036-.359a1.89,1.89,0,0,0,.872-1.87,4.492,4.492,0,0,0-2.606-3.059,1.736,1.736,0,0,0-2.013.437,1.725,1.725,0,0,0-.473,1.873,4.9,4.9,0,0,0,1.652,2.288A2.041,2.041,0,0,0-1518.265,659.111Z" transform="translate(-929.9 -957.601)" fill="#fff"/>
    <path id="Path_753" data-name="Path 753" d="M-1945.546-361.392a43.8,43.8,0,0,1-.2-4.694.5.5,0,0,0-.012-.134c-.184-.754-.184-.765.57-.757.382,0,.73-.154,1.105-.174.278-.015.4.08.525.349a14.21,14.21,0,0,0,.9,1.631c.436.676.739,1.411,1.129,2.1a4.1,4.1,0,0,1,.474,1,.3.3,0,0,0,.348.219c.147-.025.129-.184.136-.3a2.208,2.208,0,0,0,0-.448c-.2-1.378-.1-2.775-.271-4.155-.026-.206-.062-.465.176-.554a1.547,1.547,0,0,1,.966-.059c.128.037.109.2.115.317.063,1.254.2,2.5.234,3.761.024.862.134,1.728.181,2.594.019.346-.077.483-.447.474a6.588,6.588,0,0,0-1.158.1c-.336.052-.479-.122-.617-.386-.685-1.31-1.346-2.634-2.1-3.905-.2-.332-.36-.686-.548-1.025-.063-.114-.139-.272-.3-.216s-.106.215-.1.351c.091,1.653.173,3.306.265,4.959.018.317-.064.495-.421.413a.167.167,0,0,0-.045,0c-.869.047-.871.047-.9-.842C-1945.552-360.972-1945.546-361.182-1945.546-361.392Z" transform="translate(-545.027 -29.563)" fill="#fff"/>
    <path id="Path_754" data-name="Path 754" d="M-2235.149,715.858c0-.583,0-1.166,0-1.749,0-.138.1-.329-.088-.4s-.255.128-.329.244c-.5.795-1.009,1.59-1.494,2.4-.3.5-.329.516-.8.186-.751-.527-.752-.528-.281-1.328.629-1.068,1.341-2.084,2-3.134.457-.731.932-1.454,1.346-2.211.146-.267.279-.3.513-.152.273.179.554.346.823.531.227.157.064.316-.026.46-.411.658-.828,1.312-1.241,1.968-.079.125-.2.266-.094.406.124.157.267,0,.4-.035,1.15-.26,2.185-.848,3.316-1.164a.378.378,0,0,1,.329.009c.363.233.719.476,1.075.718.206.14.078.222-.064.268-1.122.364-2.242.739-3.373,1.071a.584.584,0,0,0-.5.665c0,1.422.176,2.832.24,4.249.007.143.079.338-.07.416s-.266-.09-.374-.185a2.119,2.119,0,0,0-.653-.465c-.416-.147-.491-.47-.51-.841q-.047-.964-.094-1.928Z" transform="translate(-278.748 -1009.698)" fill="#fff"/>
    <path id="Path_755" data-name="Path 755" d="M-2054.005,791.167a3.787,3.787,0,0,1,2.925,1.31,1.9,1.9,0,0,1,.254,1.414.235.235,0,0,1-.179.231,1.4,1.4,0,0,1-1.231-.8,1.449,1.449,0,0,0-2.006-1.037,1.1,1.1,0,0,0-.6,1.056.833.833,0,0,0,.473.78,17.028,17.028,0,0,1,2.36,1.5,1.975,1.975,0,0,1-.649,3.2c-1.582.717-2.917.177-4.224-.673a2.1,2.1,0,0,1-.568-2.161c.086-.181.172-.216.341-.166.214.065.428.136.647.181.374.076.632.169.517.673a1.066,1.066,0,0,0,.363.925,1.629,1.629,0,0,0,2.339-.037.9.9,0,0,0-.4-1.444,20.692,20.692,0,0,1-2.038-1.287,1.77,1.77,0,0,1-.763-1.714,2.008,2.008,0,0,1,1.287-1.743A2.635,2.635,0,0,1-2054.005,791.167Z" transform="translate(-443.375 -1083.903)" fill="#fff"/>
    <path id="Path_756" data-name="Path 756" d="M-1629.353-290.953c-.173,1.167.635,1.67,1.415,2.122.914.53.938.487,1.423-.453.062-.12.126-.238.188-.357a.365.365,0,0,0-.221-.571c-.028-.012-.058-.016-.085-.029-.714-.338-.766-.548-.318-1.219a.182.182,0,0,1,.294-.064,22.714,22.714,0,0,0,2.057,1.17c.235.113.234.267.114.475-.483.836-.962,1.675-1.431,2.519a.378.378,0,0,1-.516.2,7.921,7.921,0,0,1-3.491-1.9,3.111,3.111,0,0,1-.442-3.824,6.252,6.252,0,0,1,.642-1.062,3.515,3.515,0,0,1,5.142-.466,3.45,3.45,0,0,1,1.155,1.445,1.736,1.736,0,0,1-.125,1.5c-.078.163-.164.129-.282.056-.279-.171-.557-.343-.846-.5a.288.288,0,0,1-.156-.373,1.181,1.181,0,0,0-.445-1.419,2.03,2.03,0,0,0-2.188-.3,3.332,3.332,0,0,0-1.515,1.632A2.261,2.261,0,0,0-1629.353-290.953Z" transform="translate(-831.719 -95.18)" fill="#fff"/>
    <path id="Path_757" data-name="Path 757" d="M-1474.894-165.725a2.461,2.461,0,0,1,.562-1.719,4.431,4.431,0,0,1,2.9-1.947,3.412,3.412,0,0,1,2.75.8,3.762,3.762,0,0,1,1.359,1.888,2.156,2.156,0,0,1-.35,2.133c-.136.157-.245.194-.393.009-.205-.256-.429-.5-.646-.742a.26.26,0,0,1-.035-.323,1.664,1.664,0,0,0-1.012-2.412,2.509,2.509,0,0,0-2.419.548,4.346,4.346,0,0,0-1.285,1.413,2.413,2.413,0,0,0,.354,2.206c.295.317.607.618.9.939a.281.281,0,0,0,.4.049.9.9,0,0,0,.31-.317c.18-.271.619-.371.618-.732,0-.336-.337-.541-.536-.8-.164-.211.072-.693.421-.868.3-.148.332.11.441.283a12.383,12.383,0,0,0,1.028,1.109,3.742,3.742,0,0,0,.366.395c.195.179.159.333-.027.483-.756.612-1.473,1.268-2.164,1.952a.319.319,0,0,1-.447.048,8.835,8.835,0,0,1-2.8-3.116A2.1,2.1,0,0,1-1474.894-165.725Z" transform="translate(-973.597 -209.734)" fill="#fff"/>
    <path id="Path_758" data-name="Path 758" d="M-2387.088-135.533c0,.12,0,.15,0,.18-.012.576-.007.586.523.332a1.089,1.089,0,0,1,1.02.164c.647.323,1.218.787,1.9,1.052a.194.194,0,0,1,.081.3,1.614,1.614,0,0,1-.167.21c-.69.826-.7.835-1.609.2a9.629,9.629,0,0,0-1.012-.577.739.739,0,0,0-1,.2c-.24.286-.489.564-.736.844-.275.312-.248.581.123.757.655.31,1.084.914,1.707,1.264.215.12.233.288.034.467-.264.239-.348.748-.694.771-.292.019-.532-.379-.806-.576-.8-.571-1.513-1.251-2.328-1.785-.781-.512-1.421-1.2-2.231-1.666a.325.325,0,0,1-.094-.557c.806-.911,1.436-1.968,2.334-2.8a1.64,1.64,0,0,1,1.9-.386A1.508,1.508,0,0,1-2387.088-135.533Zm-.944.99a1.112,1.112,0,0,0-.53-1.115c-.585-.333-1.114-.189-1.627.54-.733,1.043-.948.837.213,1.673.261.188.439.588.786.54s.418-.5.649-.745C-2388.255-133.946-2388-134.254-2388.031-134.543Z" transform="translate(-138.574 -238.983)" fill="#fff"/>
    <path id="Path_759" data-name="Path 759" d="M-1421.224-104.43a1.824,1.824,0,0,1-1.531,1.564,1.967,1.967,0,0,1-1.053-.3c-.282-.113-.483-.173-.379.264a1.164,1.164,0,0,1-.407,1.07c-.513.557-1.133,1.009-1.6,1.614-.112.146-.23.122-.315-.035-.057-.1-.088-.224-.152-.323-.515-.8-.5-.784.206-1.446a5.6,5.6,0,0,0,1.031-.918.937.937,0,0,0,.007-1.09c-.145-.242-.3-.476-.45-.717-.271-.448-.4-.5-.85-.205-.587.379-1.164.775-1.722,1.195-.217.163-.332.155-.452-.072-.028-.053-.065-.1-.1-.152-.524-.862-.548-.9.291-1.416,1.075-.658,2.132-1.341,3.187-2.03a13.184,13.184,0,0,0,1.668-1.188c.177-.16.318-.212.46.039.52.916,1.114,1.785,1.693,2.662A2.278,2.278,0,0,1-1421.224-104.43Zm-1.337-.558a3.7,3.7,0,0,0-.666-1.618c-.263-.35-.525-.433-.886-.134-.294.245-.615.459-.926.684a.389.389,0,0,0-.126.55,4.721,4.721,0,0,0,.908,1.217.786.786,0,0,0,.955.166C-1422.943-104.323-1422.581-104.571-1422.561-104.988Z" transform="translate(-1015.057 -264.952)" fill="#fff"/>
    <path id="Path_760" data-name="Path 760" d="M-1853.422-365.334a3.971,3.971,0,0,1,2.489.895,3.131,3.131,0,0,1,.886,1.663,4.88,4.88,0,0,1-.243,2.79,3.279,3.279,0,0,1-4.229,2.01,3.219,3.219,0,0,1-1.728-1.2,3.54,3.54,0,0,1-.562-2.679,5.027,5.027,0,0,1,.565-1.829,2.574,2.574,0,0,1,1.712-1.426A3.044,3.044,0,0,1-1853.422-365.334Zm1.983,3.3c0-.12,0-.239,0-.359a1.912,1.912,0,0,0-1.626-1.893,1.6,1.6,0,0,0-1.959,1.211,5.25,5.25,0,0,0-.222,2.826,1.682,1.682,0,0,0,1.295,1.385,1.581,1.581,0,0,0,1.913-.765A4.756,4.756,0,0,0-1851.439-362.038Z" transform="translate(-626.021 -31.449)" fill="#fff"/>
    <path id="Path_761" data-name="Path 761" d="M-2311.347,680.3c-.03-.025-.076-.06-.118-.1-.132-.121-.255-.253-.395-.364a.8.8,0,0,1-.282-1.124c.458-1,.25-1.486-.714-2.051a6,6,0,0,1-.907-.8.486.486,0,0,0-.642-.085,5.39,5.39,0,0,0-.967.6c-.21.184-.371.135-.533-.054a3.554,3.554,0,0,0-.393-.428c-.374-.312-.378-.365.035-.594.768-.428,1.542-.846,2.306-1.282q2.059-1.176,4.106-2.374c.138-.081.215-.116.343.007.377.363.765.715,1.154,1.066a.24.24,0,0,1,.063.315q-.852,2.058-1.693,4.121c-.257.633-.488,1.276-.738,1.911-.14.355-.3.7-.44,1.057C-2311.2,680.211-2311.2,680.3-2311.347,680.3Zm-.039-3.837a.279.279,0,0,0,.281-.172q.547-1.316,1.093-2.633c.038-.093.1-.2-.01-.288s-.2-.022-.288.033q-1.157.677-2.317,1.351c-.27.157-.325.326-.073.556.353.322.691.661,1.043.984A1.538,1.538,0,0,0-2311.386,676.465Z" transform="translate(-207.663 -975.075)" fill="#fff"/>
    <path id="Path_762" data-name="Path 762" d="M-1704.953-329.273a4.785,4.785,0,0,1-1.937,3.441,2.945,2.945,0,0,1-2.789.252,3.349,3.349,0,0,1-2.166-1.873,3,3,0,0,1-.173-1.7,6.473,6.473,0,0,1,.951-2.381,3.228,3.228,0,0,1,3.789-1.163,8.925,8.925,0,0,1,1.391.821A3.137,3.137,0,0,1-1704.953-329.273Zm-5.67.652a1.935,1.935,0,0,0,.978,2,1.489,1.489,0,0,0,1.81-.115,4.369,4.369,0,0,0,1.447-3.519,1.8,1.8,0,0,0-1.194-1.6,1.429,1.429,0,0,0-1.509.29A4.355,4.355,0,0,0-1710.624-328.621Z" transform="translate(-757.781 -60.942)" fill="#fff"/>
    <path id="Path_763" data-name="Path 763" d="M-1854.021,807.013c.427-.142.693.048.892.547.467,1.171,1.027,2.3,1.528,3.462.328.757.706,1.514,1.1,2.252.159.3.4.678.327.94-.09.315-.58.111-.874.225-.4.154-.582-.03-.7-.387a2.553,2.553,0,0,0-.376-.892.579.579,0,0,0-.568-.254c-.76.077-1.52.153-2.281.213-.346.027-.557.152-.6.528a7.885,7.885,0,0,0-.233,1,.332.332,0,0,1-.314.328c-.044.008-.089.008-.134.013-1.065.136-1.033.121-.756-.894.191-.7.314-1.422.5-2.129.367-1.407.719-2.819,1.092-4.224C-1855.239,807.07-1855.148,807.033-1854.021,807.013Zm-.766,5.031c.547-.067,1.077-.233,1.631-.272.294-.02.248-.259.172-.445q-.489-1.2-1-2.387c-.052-.121-.052-.343-.26-.3-.188.035-.209.231-.247.391-.167.7-.326,1.41-.5,2.112a1.672,1.672,0,0,0-.143.6C-1855.114,811.955-1855.014,812.069-1854.786,812.043Z" transform="translate(-625.734 -1098.283)" fill="#fff"/>
    <path id="Path_764" data-name="Path 764" d="M-2034.413-356.665c-.015-.3.047-.515.409-.5a.38.38,0,0,0,.088-.016c.769-.159.97-.012,1.009.793.026.555.282,1.052.361,1.592.032.223.218.267.417.226a19.263,19.263,0,0,0,2.054-.442c.3-.1.382-.221.3-.518-.186-.707-.209-1.449-.458-2.144-.058-.162,0-.25.174-.288.292-.065.579-.146.869-.219.172-.044.344-.057.4.16.2.78.335,1.574.474,2.368.151.86.377,1.706.544,2.564.111.573.18,1.156.256,1.735a.182.182,0,0,1-.142.2c-.323.066-.646.132-.97.187-.148.025-.208-.066-.235-.206-.151-.79-.323-1.576-.458-2.369-.061-.361-.219-.5-.577-.42-.671.141-1.353.22-2.016.4a.365.365,0,0,0-.3.5c.165.773.325,1.547.489,2.321a.428.428,0,0,1-.011.347,4.3,4.3,0,0,1-1.192.354c-.1-.039-.117-.124-.139-.214q-.477-1.93-.826-3.887C-2034.036-354.981-2034.235-355.822-2034.413-356.665Z" transform="translate(-464.437 -37.943)" fill="#fff"/>
    <path id="Path_765" data-name="Path 765" d="M-1382.126-26.272a3.016,3.016,0,0,1,1.746-2.816,5.72,5.72,0,0,1,2.741-.759,3.3,3.3,0,0,1,2.7,2.264c.036.226.2.385.255.608a3.123,3.123,0,0,1-1.616,3.5,5.13,5.13,0,0,1-2.437.788,2.907,2.907,0,0,1-2.554-1.236A3.569,3.569,0,0,1-1382.126-26.272Zm4.627-2.184a5.62,5.62,0,0,0-2.31.754,2.222,2.222,0,0,0-1.107,1.041,1.871,1.871,0,0,0,1.724,2.618,4.064,4.064,0,0,0,3.156-1.534,1.418,1.418,0,0,0,.43-1.055C-1375.777-27.546-1376.291-28.51-1377.5-28.456Z" transform="translate(-1058.034 -336.759)" fill="#fff"/>
    <path id="Path_766" data-name="Path 766" d="M-2159.067,754.333a1.978,1.978,0,0,1-.2-.1c-.714-.468-1.531-.731-2.277-1.134-.209-.113-.4-.093-.487.128-.188.5-.484.947-.681,1.446a.337.337,0,0,0,.232.505c.894.352,1.714.854,2.59,1.238.257.113.378.231.189.495a.63.63,0,0,0-.042.127c-.26.629-.26.627-.855.3-1.135-.621-2.329-1.116-3.512-1.631-.57-.248-.611-.281-.36-.851.294-.667.682-1.3.974-1.957.371-.838.763-1.669,1.11-2.519a11.589,11.589,0,0,0,.725-1.638c.053-.222.221-.369.476-.206,1.221.781,2.624,1.187,3.891,1.878.309.169.359.333.193.584-.154.233-.153.7-.679.427-.766-.4-1.563-.736-2.34-1.112-.32-.155-.537-.114-.675.235-.149.374-.318.739-.471,1.111-.095.231.024.339.227.451a24.72,24.72,0,0,0,2.256,1.042c.208.089.375.2.251.422C-2158.678,753.839-2158.634,754.256-2159.067,754.333Z" transform="translate(-345.951 -1045.046)" fill="#fff"/>
    <path id="Path_767" data-name="Path 767" d="M-2442.726,494.784c-.14-.025-.235-.2-.288-.385a18.964,18.964,0,0,0-1.085-2.243c-.1-.23-.306-.222-.5-.137-.469.208-.933.428-1.4.646-.267.125-.268.325-.149.557.405.793.807,1.588,1.216,2.379.088.171.278.375.133.524a2.367,2.367,0,0,1-.776.506c-.152.064-.222-.18-.283-.3-.281-.543-.53-1.1-.8-1.65-.345-.693-.708-1.377-1.05-2.072-.245-.5-.2-.626.3-.877,1.691-.847,3.387-1.683,5.077-2.531a9.536,9.536,0,0,0,.883-.516c.272-.175.408-.063.508.193.333.858.83,1.635,1.209,2.469.21.462.513.87.7,1.342.157.4.081.507-.5.811-.356.186-.416-.1-.519-.293a16.816,16.816,0,0,1-1.132-2.336.442.442,0,0,0-.639-.3c-.341.141-.661.334-.993.5s-.365.406-.223.735c.312.725.742,1.389,1.06,2.113.142.324.126.483-.175.578C-2442.351,494.558-2442.416,494.8-2442.726,494.784Z" transform="translate(-88.199 -808.565)" fill="#fff"/>
    <path id="Path_768" data-name="Path 768" d="M-2491.308,118.926a4.187,4.187,0,0,1-.873,2.554,2.08,2.08,0,0,1-1.795.59c-.088-.028-.194-.057-.191-.16a3.4,3.4,0,0,1,.186-1.183.276.276,0,0,1,.256-.15,1.373,1.373,0,0,0,1.443-1.5,1.037,1.037,0,0,0-.217-.881c-.632-.635-1.257-.535-1.668.28-.213.422-.461.831-.633,1.269a3.526,3.526,0,0,1-.892,1.16,1.848,1.848,0,0,1-2.272-.132,3.264,3.264,0,0,1,.547-4.691,2.174,2.174,0,0,1,1.179-.14c.153,0,.179.137.142.268a2.125,2.125,0,0,0-.141.47c-.014.435-.17.593-.646.618-.5.026-.706.513-.835.946a1.143,1.143,0,0,0,.414,1.315.892.892,0,0,0,1.048.033,1.415,1.415,0,0,0,.4-.531,21.711,21.711,0,0,1,1.156-2.073,1.679,1.679,0,0,1,2.345-.382A2.47,2.47,0,0,1-2491.308,118.926Z" transform="translate(-41.907 -469.42)" fill="#fff"/>
    <path id="Path_769" data-name="Path 769" d="M-1349.379,54.55a2.371,2.371,0,0,1,1.893-2.383q1.921-.537,3.839-1.084a1.5,1.5,0,0,0,.281-.135c.166-.088.286-.063.346.129,0,.014.007.029.013.043.434,1.054.447,1.1-.648,1.385s-2.162.676-3.257.969a2.9,2.9,0,0,0-.622.249,1.176,1.176,0,0,0-.689,1.589c.393,1.242.851,1.787,2.35,1.373.274-.076.546-.155.819-.235,1.014-.3,2.041-.55,3.034-.919.241-.09.452-.041.465.288a.9.9,0,0,0,.034.221c.206.691.186.755-.49.959-1.2.361-2.394.74-3.608,1.041-1.781.442-3.027-.5-3.557-2.2A8.733,8.733,0,0,1-1349.379,54.55Z" transform="translate(-1087.839 -410.241)" fill="#fff"/>
    <path id="Path_770" data-name="Path 770" d="M-2420.764-54.463a3.527,3.527,0,0,1-.781-.2.644.644,0,0,0-.842.272,19.754,19.754,0,0,1-1.271,2.039.224.224,0,0,0,0,.323,5.141,5.141,0,0,0,.353.391,1.175,1.175,0,0,1,.121,1.8c-.127.145-.214.057-.279-.037-.873-1.265-1.99-2.331-2.9-3.566a12.752,12.752,0,0,0-1.182-1.34c-.2-.207-.31-.473-.509-.678-.12-.123-.083-.269.005-.412.187-.3.367-.613.545-.922a.463.463,0,0,1,.581-.253c1.726.341,3.439.744,5.18,1,.588.088,1.165.249,1.747.374.111.024.163.083.1.187q-.3.485-.616.962C-2420.573-54.43-2420.676-54.454-2420.764-54.463Zm-5.392-1.143c-.1-.014-.216-.026-.271.091s.026.192.094.274c.553.659,1.1,1.322,1.657,1.978.17.2.326.17.454-.058.212-.375.432-.746.643-1.121.238-.422.192-.64-.266-.7C-2424.628-55.249-2425.369-55.54-2426.156-55.605Z" transform="translate(-106.144 -311.994)" fill="#fff"/>
    <path id="Path_771" data-name="Path 771" d="M-2178.536-305.551a1.955,1.955,0,0,0,.856-.364c.5-.265.994-.542,1.478-.835.288-.175.438-.109.514.205a.809.809,0,0,0,.1.25c.192.3.071.45-.213.586-.66.316-1.3.669-1.965.974-.34.156-.322.324-.2.633.164.4.44.743.569,1.164.087.283.323.263.553.143.806-.42,1.623-.822,2.414-1.268.232-.131.292-.071.4.113.369.609.344.695-.266,1.018-1.12.593-2.282,1.1-3.372,1.754-.214.128-.36.14-.493-.132-.465-.943-.978-1.862-1.427-2.812-.406-.858-.92-1.661-1.266-2.548-.016-.042-.02-.088-.04-.128-.348-.707-.343-.7.383-1.056q1.568-.777,3.119-1.588c.222-.116.409-.22.552.073.263.539.233.762-.09.92-.723.352-1.434.728-2.165,1.062a.4.4,0,0,0-.228.584c.123.351.289.688.426,1.034A.352.352,0,0,0-2178.536-305.551Z" transform="translate(-330.937 -82.216)" fill="#fff"/>
    <path id="Path_772" data-name="Path 772" d="M-2107.213-329.616a2.827,2.827,0,0,1,1.406-2.688,2.7,2.7,0,0,1,3.553.206,2.288,2.288,0,0,1,.292.4.251.251,0,0,1-.146.421.367.367,0,0,0-.085.027.99.99,0,0,1-1.535-.222c-.443-.538-1.539-.2-1.9.466a2.305,2.305,0,0,0-.17,1.443,4.611,4.611,0,0,0,1.3,2.777,1.177,1.177,0,0,0,1.281.273,1.374,1.374,0,0,0,.97-1.317.626.626,0,0,1,.527-.715c.223-.07.433-.179.65-.269.257-.106.231.112.252.239a2.427,2.427,0,0,1-1.764,2.875,3.058,3.058,0,0,1-2.524,0,3.476,3.476,0,0,1-1.727-2.011A4.231,4.231,0,0,1-2107.213-329.616Z" transform="translate(-398.178 -61.002)" fill="#fff"/>
    <path id="Path_773" data-name="Path 773" d="M-1323.742,144.684c-.12.812-.224,1.6-.99,1.924-1.522.642-3.065.2-3.3-1.806a2.613,2.613,0,0,0-.16-.871c-.1-.209-.215-.314-.443-.279-.664.1-1.334.18-1.99.323-.289.063-.38-.016-.438-.264-.245-1.038-.216-1.094.85-1.258,1.682-.259,3.365-.513,5.05-.75.288-.04.593-.277.865-.08s.067.536.138.8A21.081,21.081,0,0,1-1323.742,144.684Zm-1.139-.617c0-.023,0-.113,0-.2-.035-.786-.045-.79-.837-.752a3.279,3.279,0,0,0-.659.128c-.873.224-.9.231-.667,1.1.1.361.115.807.583,1A1.1,1.1,0,0,0-1324.881,144.067Z" transform="translate(-1104.394 -492.731)" fill="#fff"/>
    <path id="Path_774" data-name="Path 774" d="M-1706,770.263c.033.166-.1.2-.205.243-.166.06-.348.079-.507.152-.656.3-.681.316-.88-.36-.405-1.377-.994-2.684-1.478-4.031-.095-.265-.179-.533-.266-.8-.159-.485-.333-.579-.8-.414a11.423,11.423,0,0,0-1.3.493c-.3.148-.426.014-.533-.193-.285-.552-.235-.674.334-.946.833-.4,1.723-.649,2.581-.982.748-.29,1.473-.635,2.242-.88.241-.077.312-.033.411.148.311.566.234.812-.36,1.048-.346.137-.7.258-1.052.376s-.385.257-.226.615c.36.811.646,1.655.935,2.5s.561,1.707.927,2.529C-1706.1,769.92-1706.06,770.094-1706,770.263Z" transform="translate(-757.718 -1057.827)" fill="#fff"/>
    <path id="Path_775" data-name="Path 775" d="M-1422.728,556.069c.08.051.166.108.254.163,1.457.909,2.911,1.824,4.374,2.725.847.521.844.505,1.365-.378.346-.587.721-1.158,1.084-1.736.109-.173.227-.279.429-.1.112.1.275.143.368.252.132.154.3.268.139.571-.564,1.042-1.231,2.015-1.894,2.993a1.293,1.293,0,0,0-.3.534c-.045.3-.245.319-.458.161-.816-.608-1.739-1.046-2.559-1.653a21.729,21.729,0,0,0-1.963-1.148c-.462-.272-.908-.57-1.371-.84-.231-.135-.28-.266-.132-.5s.264-.53.4-.794A.392.392,0,0,1-1422.728,556.069Z" transform="translate(-1020.406 -869.959)" fill="#fff"/>
    <path id="Path_776" data-name="Path 776" d="M-1546.808-251.253a3.384,3.384,0,0,1-1.02-.772c-.036-.121.039-.2.1-.281.343-.471.669-.956,1.034-1.409a1.705,1.705,0,0,0,.38-.844q.285-1.944.57-3.888c.022-.148.045-.3.076-.442.053-.244.167-.31.364-.114a1.62,1.62,0,0,0,.2.173c.912.644.936.651.6,1.711-.226.712-.287,1.456-.489,2.17a.223.223,0,0,0,.057.248c.094.074.2.031.292-.022q1.23-.685,2.461-1.367a1.14,1.14,0,0,1,1.36.63c.036.2-.14.205-.25.256a27.166,27.166,0,0,1-2.531,1.136,5.432,5.432,0,0,0-2.942,2.533C-1546.612-251.422-1546.658-251.29-1546.808-251.253Z" transform="translate(-907.236 -128.118)" fill="#fff"/>
    <path id="Path_777" data-name="Path 777" d="M-2337.479-194.413a1.447,1.447,0,0,1-.4.525c-.494.56-.505.554-1.037.015q-1.615-1.636-3.225-3.277c-.5-.509-.606-.525-1.1,0a6.212,6.212,0,0,0-.817.864c-.1.159-.26.189-.4.007a1.747,1.747,0,0,0-.257-.25c-.25-.208-.246-.39-.006-.623.964-.934,1.836-1.961,2.856-2.839a3.718,3.718,0,0,0,.674-.778.277.277,0,0,1,.481-.053c.121.111.221.243.335.363.151.16.158.28-.029.444-.311.273-.581.591-.879.879s-.3.508-.006.831c1.112,1.228,2.388,2.289,3.512,3.5C-2337.67-194.683-2337.524-194.591-2337.479-194.413Z" transform="translate(-181.883 -181.064)" fill="#fff"/>
    <path id="Path_778" data-name="Path 778" d="M-2248.388-274.269a1.322,1.322,0,0,0-.433.227c-.29.251-.611.467-.924.689-.248.176-.408.247-.613-.136-.222-.415-.176-.607.2-.856,1.193-.791,2.365-1.613,3.545-2.423.124-.085.244-.173.365-.262.166-.122.3-.4.546-.1.3.354.337.777.07.974-.348.256-.707.5-1.055.753-.277.2-.3.4-.088.711.942,1.359,1.856,2.736,2.767,4.116.321.486.294.534-.2.833-.733.442-.713.43-1.161-.308-.385-.633-.823-1.234-1.236-1.85q-.68-1.016-1.357-2.035C-2248.065-274.089-2248.143-274.26-2248.388-274.269Z" transform="translate(-267.802 -111.605)" fill="#fff"/>
    <path id="Path_779" data-name="Path 779" d="M-1769.073-354.368c-.15.645-.313,1.342-.474,2.038q-.272,1.173-.542,2.346c-.007.029,0,.06-.007.089-.128,1.016-.128,1.017.9,1.251.479.109.959.216,1.439.319.464.1.4.441.372.776-.03.363-.245.39-.535.327-.962-.211-1.929-.4-2.871-.692a3.975,3.975,0,0,0-.8-.128c-.293-.029-.426-.135-.353-.466.252-1.135.5-2.27.794-3.4.209-.789.36-1.6.526-2.405.185-.9.635-1.068,1.4-.544C-1769.034-354.73-1769.075-354.58-1769.073-354.368Z" transform="translate(-703.281 -40.727)" fill="#fff"/>
    <path id="Path_780" data-name="Path 780" d="M-2325.208-153.487c3.278.169,6.56.119,9.837.226a17.647,17.647,0,0,1,2.444.073c.242.042.308.148.288.349-.123,1.2.018,2.418-.182,3.624a6.767,6.767,0,0,0-.023,1.339c.05,1.241,0,2.482-.041,3.723-.012.364-.161.5-.529.477-3.23-.183-6.466-.166-9.7-.207q-7.526-.095-15.052-.2a3.637,3.637,0,0,0-1.2-.04c-.169.053-.224-.1-.261-.236-.274-1.036-.6-2.054-.846-3.1a43.643,43.643,0,0,1-.847-5.109,40.735,40.735,0,0,1,.093-9.441,44.647,44.647,0,0,1,.8-4.629c.182-.793.482-1.557.682-2.346a29.728,29.728,0,0,1,2.036-5.378,38.158,38.158,0,0,1,2.391-4.461c.46-.71.867-1.462,1.37-2.144a38.183,38.183,0,0,1,3.274-4.066c.649-.667,1.248-1.4,1.924-2.042a42.15,42.15,0,0,1,4.353-3.652c.955-.692,1.92-1.364,2.937-1.957a45.57,45.57,0,0,1,5.317-2.738c1.523-.639,3.062-1.224,4.633-1.71,1.28-.4,2.593-.686,3.911-.96a40.337,40.337,0,0,1,5.725-.735,38.822,38.822,0,0,1,6.192.1,47.032,47.032,0,0,1,4.833.7c1.2.245,2.367.61,3.555.9.862.211,1.652.614,2.5.877a34.37,34.37,0,0,1,3.369,1.383,33.891,33.891,0,0,1,4.5,2.537,36.121,36.121,0,0,1,3.546,2.558,34.442,34.442,0,0,1,4.058,3.693c1,1.119,2.024,2.218,2.927,3.429.853,1.142,1.651,2.312,2.422,3.507.606.938,1.113,1.923,1.644,2.9a37.723,37.723,0,0,1,2.953,7.279,40.326,40.326,0,0,1,1.517,7.527c.121,1.219.166,2.445.239,3.668.022.371-.1.569-.539.549-1.451-.066-2.9-.1-4.355-.143-1.854-.052-3.708-.1-5.561-.148a7.751,7.751,0,0,0-1.388.053c-.6.091-.7-.015-.736-.634-.01-.194,0-.389,0-.583a24.635,24.635,0,0,0-.36-3.2,28.378,28.378,0,0,0-.98-3.706,28.118,28.118,0,0,0-2.575-5.787,28.166,28.166,0,0,0-3.025-4.335,27.459,27.459,0,0,0-5.778-5.2,30.987,30.987,0,0,0-3.69-2.111,27.011,27.011,0,0,0-3.725-1.507,31.529,31.529,0,0,0-4.713-1.087,31.67,31.67,0,0,0-6.182-.225,28.322,28.322,0,0,0-4.388.658,27.433,27.433,0,0,0-6.007,2.043,29,29,0,0,0-6.272,3.987,30.707,30.707,0,0,0-4.7,4.9,28.82,28.82,0,0,0-3.592,6.156,34.025,34.025,0,0,0-1.462,4.333,28.27,28.27,0,0,0-.753,4.185,23.791,23.791,0,0,0-.112,3.454c.018.717.066,1.434.066,2.15,0,.34.1.5.456.492C-2327.064-153.5-2326.136-153.487-2325.208-153.487Z" transform="translate(-184.934 -182.905)" fill="#fff"/>
    <path id="Path_781" data-name="Path 781" d="M-2247.121,319.812q.08-2.872.16-5.745a3.529,3.529,0,0,0-.04-.622.39.39,0,0,1,.457-.5c3.4.191,6.8.131,10.194.222,2.739.073,5.477.181,8.216.243,3.5.079,7.007.132,10.51.181.438.006.58.131.564.6a22.32,22.32,0,0,1-.349,2.3,18.691,18.691,0,0,1-.482,2.324c-.3,1.1-.577,2.209-.969,3.286-.295.81-.565,1.628-.877,2.434-.469,1.211-1.022,2.38-1.6,3.54a37.934,37.934,0,0,1-2.9,4.786,35.718,35.718,0,0,1-2.849,3.6c-.924,1.018-1.845,2.036-2.843,2.98a43.651,43.651,0,0,1-5.41,4.272,39.838,39.838,0,0,1-5.119,2.939,34.626,34.626,0,0,1-4.407,1.769c-.967.314-1.932.633-2.913.9a42.505,42.505,0,0,1-8.206,1.377,41.257,41.257,0,0,1-4.354.081,41.329,41.329,0,0,1-6.673-.8,46.587,46.587,0,0,1-4.64-1.187,28.577,28.577,0,0,1-2.806-1.048q-1.576-.683-3.119-1.43a33.059,33.059,0,0,1-3.692-2.094,37.252,37.252,0,0,1-4.117-2.984,39.162,39.162,0,0,1-2.925-2.641q-1.471-1.562-2.874-3.183a34.862,34.862,0,0,1-2.6-3.594,12.826,12.826,0,0,1-.96-1.548c-.435-.913-1.086-1.706-1.441-2.66a3.226,3.226,0,0,0-.28-.508c-.169-.284-.139-.468.237-.445a15.254,15.254,0,0,1,2.321.114,6.278,6.278,0,0,0,1.38-.008c2.334-.027,4.666.038,7,.046,1.149,0,2.3.031,3.448.033a1,1,0,0,1,.858.456,27.762,27.762,0,0,0,4.609,4.643,29.791,29.791,0,0,0,4.657,3.087,26.922,26.922,0,0,0,5.407,2.145,23.61,23.61,0,0,0,3.667.81,30.262,30.262,0,0,0,6.889.2c1.189-.134,2.369-.3,3.542-.517a31.572,31.572,0,0,0,3.751-1.056c.939-.3,1.832-.712,2.736-1.089.658-.274,1.255-.691,1.888-1.025a27.788,27.788,0,0,0,3.767-2.452,23.409,23.409,0,0,0,2.177-1.99c.64-.626,1.268-1.269,1.851-1.947a24.888,24.888,0,0,0,3.32-4.867c.194-.378.124-.47-.292-.487-4.475-.176-8.952-.209-13.429-.257-.383,0-.528-.114-.507-.523.037-.716.01-1.436.01-2.154Z" transform="translate(-225.879 -648.708)" fill="#fff"/>
    <path id="Path_782" data-name="Path 782" d="M-2109.449,30.392c-.1,2.6-.187,5.208-.218,7.813q-.039,3.278-.149,6.555c-.073,2.215-.084,4.431-.074,6.646,0,.731-.043.74-.754.725-1.916-.041-3.833-.039-5.75-.059-1.318-.014-2.643.039-3.951-.081-.869-.08-1.73.011-2.592-.063-.284-.024-.407-.124-.393-.41.085-1.716.1-3.434.2-5.151.085-1.493.043-2.994.035-4.491-.02-3.984.242-7.963.216-11.947,0-.614.012-1.227.013-1.841,0-.551-.14-.669-.7-.711-.586-.045-1.156.1-1.742.081-2.919-.072-5.84-.092-8.76-.167-1.617-.041-3.233-.036-4.849-.036-.312,0-.455-.056-.446-.42a9.386,9.386,0,0,1,.438-2.718c.146-.447.151-.938.266-1.4.178-.718.628-1.334.8-2.036a13.293,13.293,0,0,1,1.218-2.8,20.478,20.478,0,0,1,2.08-3.178,20.227,20.227,0,0,1,2.219-2.491,26.04,26.04,0,0,1,3.309-2.746,21.788,21.788,0,0,1,2.622-1.62,25.187,25.187,0,0,1,4.027-1.621,22.579,22.579,0,0,1,3.406-.758,23.291,23.291,0,0,1,5.73-.144,25.519,25.519,0,0,1,3.583.6,24.927,24.927,0,0,1,4.856,1.8,24.311,24.311,0,0,1,6.9,5.231,24.322,24.322,0,0,1,3.774,5.593,23.318,23.318,0,0,1,2.11,6.416,22.367,22.367,0,0,1,.3,2.5c.027.412-.131.564-.534.556-1.751-.035-3.5-.034-5.252-.089-3.455-.108-6.91-.235-10.368-.209-.389,0-.779-.01-1.168-.019-.282-.007-.4.121-.4.409C-2109.444,28.866-2109.449,29.629-2109.449,30.392Zm-12.04,15.3c-.006-.1-.006-.22-.152-.211s-.2.112-.2.241.033.25.186.237S-2121.494,45.808-2121.489,45.688Z" transform="translate(-368.926 -368.651)" fill="#fff"/>
    <path id="Path_783" data-name="Path 783" d="M-1944.17,453.088c-.005.12-.017.253-.163.266s-.187-.113-.186-.237.055-.233.2-.241S-1944.176,452.985-1944.17,453.088Z" transform="translate(-546.246 -776.051)" fill="#fff"/>
  </g>
</svg>
